<svg width="143" height="83" viewBox="0 0 143 83" fill="none" xmlns="http://www.w3.org/2000/svg">
<g clip-path="url(#clip0_102_43)">
<path d="M34.133 0H143V83H7L34.133 0Z" fill="#86AFFD" fill-opacity="0.24"/>
<path d="M118.609 13.7656C120.456 13.7656 121.953 12.2686 121.953 10.4219C121.953 8.57517 120.456 7.07812 118.609 7.07812C116.763 7.07812 115.266 8.57517 115.266 10.4219C115.266 12.2686 116.763 13.7656 118.609 13.7656Z" stroke="#22E403" stroke-width="3" stroke-linecap="round" stroke-linejoin="round"/>
<path d="M106.07 23.0763C107.057 23.0763 107.858 22.276 107.858 21.2889C107.858 20.3017 107.057 19.5015 106.07 19.5015C105.083 19.5015 104.283 20.3017 104.283 21.2889C104.283 22.276 105.083 23.0763 106.07 23.0763Z" fill="#4481F3"/>
<path d="M57.5857 8.02939C58.5729 8.02939 59.3731 7.22915 59.3731 6.24199C59.3731 5.25484 58.5729 4.45459 57.5857 4.45459C56.5986 4.45459 55.7983 5.25484 55.7983 6.24199C55.7983 7.22915 56.5986 8.02939 57.5857 8.02939Z" fill="#7ACCFA"/>
<path d="M120.171 72.2812H131.984V54.7015L120.281 48.875L112.718 33.8281H95.4922" stroke="#4481F3" stroke-width="3" stroke-linecap="round" stroke-linejoin="round"/>
<path d="M64.562 72.2812H103.878" stroke="#4481F3" stroke-width="3" stroke-linecap="round" stroke-linejoin="round"/>
<path d="M47.9693 22.125H35.0156V72.2812H48.2134" stroke="#4481F3" stroke-width="3" stroke-linecap="round" stroke-linejoin="round"/>
<path d="M95.203 63.9219V22.125H83.769" stroke="#4481F3" stroke-width="3" stroke-linecap="round" stroke-linejoin="round"/>
<path d="M101.891 55.5625H105.234" stroke="#4E3A3A" stroke-width="3" stroke-linecap="round" stroke-linejoin="round"/>
<path d="M112.056 81.4766C116.442 81.4766 119.998 77.9211 119.998 73.5352C119.998 69.1492 116.442 65.5938 112.056 65.5938C107.67 65.5938 104.115 69.1492 104.115 73.5352C104.115 77.9211 107.67 81.4766 112.056 81.4766Z" stroke="#4E3A3A" stroke-width="3" stroke-linecap="round" stroke-linejoin="round"/>
<path d="M56.3164 81.4766C60.7023 81.4766 64.2578 77.9211 64.2578 73.5352C64.2578 69.1492 60.7023 65.5938 56.3164 65.5938C51.9305 65.5938 48.375 69.1492 48.375 73.5352C48.375 77.9211 51.9305 81.4766 56.3164 81.4766Z" stroke="#4E3A3A" stroke-width="3" stroke-linecap="round" stroke-linejoin="round"/>
<path d="M73.4688 43.8594H68.4531V53.8906H73.4688" stroke="#FF0000" stroke-width="3" stroke-linecap="round" stroke-linejoin="round"/>
<path d="M73.4688 48.875H68.4531" stroke="#FF0000" stroke-width="3" stroke-linecap="round" stroke-linejoin="round"/>
<path d="M83.5 43.8594H78.4844V53.8906H83.5" stroke="#FF0000" stroke-width="3" stroke-linecap="round" stroke-linejoin="round"/>
<path d="M83.5 48.875H78.4844" stroke="#FF0000" stroke-width="3" stroke-linecap="round" stroke-linejoin="round"/>
<path d="M51.7344 43.8594H46.7188V53.8906" stroke="#FF0000" stroke-width="3" stroke-linecap="round" stroke-linejoin="round"/>
<path d="M51.7344 48.875H46.7188" stroke="#FF0000" stroke-width="3" stroke-linecap="round" stroke-linejoin="round"/>
<path d="M56.75 53.8906V43.8594H61.1703C61.7716 43.8594 62.3482 44.0983 62.7734 44.5235C63.1986 44.9487 63.4375 45.5253 63.4375 46.1266V46.6078C63.4375 47.2091 63.1986 47.7857 62.7734 48.2109C62.3482 48.6361 61.7716 48.875 61.1703 48.875H58.4219L63.4375 53.8906" stroke="#FF0000" stroke-width="3" stroke-linecap="round" stroke-linejoin="round"/>
<path d="M82.7581 20.0358L76.1824 11.8163C75.6882 11.1696 74.9823 10.7173 74.1882 10.5387C73.3941 10.36 72.5625 10.4664 71.8389 10.8391C71.4132 11.0752 71.0442 11.4014 70.7575 11.7948C70.4709 12.1883 70.2736 12.6396 70.1794 13.1171C70.0851 13.5947 70.0963 14.0871 70.212 14.5599C70.3277 15.0328 70.5452 15.4747 70.8493 15.8548L73.19 18.7805H51.7256C50.8388 18.7805 49.9883 19.1328 49.3612 19.7599C48.7341 20.387 48.3818 21.2375 48.3818 22.1243C48.3818 23.0111 48.7341 23.8616 49.3612 24.4887C49.9883 25.1158 50.8388 25.468 51.7256 25.468H73.1906L70.9888 28.2203C70.4053 28.9345 70.1242 29.8487 70.2058 30.7673C70.2873 31.686 70.7248 32.5364 71.425 33.1368C72.1192 33.6692 72.9944 33.9083 73.8629 33.8029C74.7314 33.6974 75.524 33.2558 76.0706 32.5727L82.7581 24.2133C83.2324 23.6204 83.4908 22.8838 83.4908 22.1245C83.4908 21.3653 83.2324 20.6287 82.7581 20.0358V20.0358Z" stroke="#4481F3" stroke-width="3" stroke-linecap="round" stroke-linejoin="round"/>
<path d="M42.0156 12L37 17.0156" stroke="#FF0000" stroke-width="3" stroke-linecap="round" stroke-linejoin="round"/>
<path d="M37 12L42.0156 17.0156" stroke="#FF0000" stroke-width="3" stroke-linecap="round" stroke-linejoin="round"/>
<path d="M95.2031 48.875H120.281" stroke="#4481F3" stroke-width="3" stroke-linejoin="round"/>
<path d="M35.0156 65.5938H131.984" stroke="#4481F3" stroke-width="3" stroke-linejoin="round"/>
<path fill-rule="evenodd" clip-rule="evenodd" d="M122.709 50.8658C122.056 50.2247 120.924 50.0662 120.164 50.5594C119.567 50.9495 118.76 51.3019 118.502 51.8959C117.588 53.969 116.172 53.9837 114.381 53.5453C113.5 53.3302 112.515 53.6095 111.577 53.6526C111.147 53.6732 110.775 53.6031 110.599 53.0739C110.437 52.5812 110.03 52.3585 109.563 52.3349C108.741 52.2889 107.91 52.1941 107.101 52.2878C106.115 52.4015 105.124 52.6042 104.382 53.4428C103.838 54.0568 103.267 54.6414 102.699 55.2271C101.877 56.0698 101.813 56.0592 101.128 55.0651C100.943 54.7934 100.821 54.411 100.411 54.4941C100.071 54.5583 100.102 54.883 100.066 55.1617C100.029 55.4375 99.7806 55.5436 99.6162 55.7145C99.1531 56.1888 98.681 56.6467 98.235 57.1458C97.7058 57.7369 97.8419 58.1683 98.2296 58.6803C98.3758 58.8754 98.5025 59.097 98.6793 59.2543C100.797 61.1512 102.366 63.6999 104.971 65.0417C105.612 65.3723 105.938 65.2774 106.335 64.9014C106.814 64.4471 107.227 63.9108 107.685 63.4282C108.647 62.4093 108.701 62.1377 108.134 60.945C108.371 60.7652 108.638 60.8477 108.892 60.8495C110.829 60.8619 112.768 60.8607 114.704 60.919C115.825 60.9503 116.746 60.6486 117.518 59.7163C118.215 58.8772 119.096 58.2119 119.798 57.3774C120.921 56.035 122.271 54.8789 122.983 53.177C123.339 52.3296 123.406 51.547 122.709 50.8658ZM105.61 63.9191C104.951 63.9438 104.424 63.6274 103.929 63.2119C102.246 61.7924 100.905 59.9939 99.2998 58.4906C98.9397 58.1559 98.9327 57.7793 99.2485 57.4364C99.6168 57.0356 100.029 56.6821 100.421 56.3073C100.579 56.1553 100.727 56.1759 100.886 56.3155C101.362 56.7286 101.966 57.0474 102.293 57.5642C103.2 58.9903 104.532 59.8283 105.818 60.747C106.312 61.1011 106.572 61.8295 107.318 61.7918C107.364 61.7876 107.458 61.9845 107.462 62.0917C107.474 62.4005 105.916 63.9232 105.61 63.9191ZM122.11 52.7898C121.421 54.3485 120.177 55.4346 119.12 56.6738C118.433 57.4788 117.582 58.1294 116.905 58.942C116.252 59.7251 115.502 59.9721 114.564 59.9214C113.628 59.8707 112.689 59.9096 111.752 59.9096V59.8536C110.755 59.8536 109.757 59.8518 108.761 59.8536C108.555 59.8536 108.351 59.8577 108.144 59.8666C107.514 59.896 106.934 60.4376 106.242 59.8719C105.108 58.9473 103.781 58.2749 103.036 56.8795C102.941 56.6992 102.848 56.5147 103.001 56.3774C104.151 55.3627 104.873 53.7975 106.499 53.3909C107.438 53.1558 108.367 53.3066 109.301 53.3049C109.611 53.3031 109.789 53.497 109.876 53.7899C110.082 54.4882 110.6 54.6408 111.194 54.6208C112.218 54.5889 113.242 54.5218 114.267 54.4923C114.643 54.4799 115.041 54.4611 115.311 54.8435C115.483 55.0875 115.723 55.2878 115.65 55.6585C115.569 56.0722 115.25 56.0557 114.974 56.1264C113.464 56.51 111.959 56.9661 110.381 56.533C110.043 56.4411 109.685 56.4222 109.407 56.1511C109.196 55.9461 108.942 55.8046 108.72 56.0857C108.462 56.4116 108.611 56.7392 108.849 57.0032C109.082 57.2619 109.412 57.3197 109.724 57.4045C111.176 57.7976 112.625 57.7858 114.074 57.3839C114.444 57.2808 114.812 57.1158 115.184 57.1034C116.255 57.0633 116.621 56.3633 116.632 55.3874C116.639 54.9083 116.81 54.7162 117.209 54.6367C117.965 54.4829 118.409 54.0044 118.716 53.2401C119.12 52.2383 120.033 51.7562 120.901 51.319C121.315 51.1086 121.772 51.3284 122.111 51.6708C122.464 52.0285 122.27 52.4251 122.11 52.7898Z" fill="#4E3A3A"/>
<path fill-rule="evenodd" clip-rule="evenodd" d="M107.381 51.4515C107.863 51.4179 107.811 50.9406 107.798 50.5729C107.776 49.9783 107.785 49.3914 107.918 48.808C108.524 46.168 109.66 43.9829 112.234 42.9817C112.794 42.7643 112.92 42.3901 112.504 41.8303C112.162 41.3694 111.9 40.8379 111.628 40.3229C111.23 39.568 111.447 39.04 112.236 38.7996C112.587 38.6923 112.929 38.7683 113.276 38.855C114.075 39.0547 114.869 39.3105 115.704 39.2256C116.08 39.1873 116.204 39.2952 116.031 39.6853C115.572 40.7242 115.42 42.1049 113.837 41.8798C113.757 41.868 113.665 41.9198 113.586 41.957C113.269 42.1025 112.823 42.1986 112.96 42.6924C113.104 43.2039 113.517 43.0265 113.848 42.9039C114.488 42.6676 115.024 42.7431 115.501 43.3241C115.844 43.7449 116.276 44.0825 116.668 44.4585C118.019 45.759 119.035 47.2317 118.898 49.3077C118.877 49.6141 118.985 49.8899 119.315 49.9088C119.653 49.9271 119.751 49.6265 119.793 49.3466C119.917 48.5263 119.78 47.7414 119.523 46.9612C118.955 45.2299 117.699 44.0843 116.484 42.914C116.148 42.591 116.06 42.3382 116.196 41.8798C116.486 40.8892 116.966 39.9952 117.359 39.0565C117.494 38.7324 117.57 38.3718 117.342 38.0777C117.101 37.766 116.755 37.8296 116.45 37.9799C115.71 38.3423 114.967 38.2498 114.209 38.0677C113.555 37.9109 112.914 37.6746 112.218 37.7854C110.667 38.0311 110.037 39.3282 110.784 40.7719C110.925 41.0448 111.055 41.3276 111.221 41.5834C111.501 42.0118 111.447 42.2628 110.978 42.5144C108.11 44.0613 107.272 46.8987 106.816 49.745C106.841 50.1999 106.839 50.4197 106.87 50.6348C106.919 50.9919 106.885 51.4881 107.381 51.4515Z" fill="#FF0000"/>
<path fill-rule="evenodd" clip-rule="evenodd" d="M113.902 51.449C113.486 51.5504 113.143 51.472 112.929 51.0448C112.771 50.7295 112.597 50.3701 112.206 50.6376C111.871 50.8674 111.982 51.2534 112.124 51.5681C112.432 52.2558 113.089 52.6247 113.59 53.0855C114.025 53.4862 113.988 52.4891 114.367 52.3518C114.478 52.3123 114.587 52.2628 114.688 52.2004C115.968 51.396 115.969 49.4425 114.681 48.6499C114.251 48.3842 113.792 48.1691 113.342 47.9452C112.811 47.6823 112.847 47.2787 113.151 46.8892C113.629 46.2757 114.056 46.515 114.438 47.0471C114.607 47.2816 114.816 47.4566 115.115 47.3217C115.303 47.2368 115.343 47.0565 115.31 46.7872C115.29 46.733 115.263 46.6087 115.206 46.5032C114.834 45.8102 114.088 45.4595 113.807 44.6375C113.687 44.2898 113.129 44.4807 113.167 44.9127C113.22 45.499 112.891 45.7129 112.581 46.037C111.625 47.04 111.837 48.2799 113.041 48.9022C113.436 49.1066 113.834 49.3064 114.22 49.5292C114.594 49.7448 114.762 50.1008 114.683 50.5457C114.602 51.0035 114.364 51.3377 113.902 51.449Z" fill="#FF0000"/>
<path fill-rule="evenodd" clip-rule="evenodd" d="M101.12 57.7261C100.787 57.7709 100.636 57.9447 100.679 58.2393C100.764 58.795 100.997 59.2488 101.575 59.3572C101.848 59.4079 102.098 59.2541 102.022 58.9559C101.886 58.4155 101.578 57.9736 101.12 57.7261Z" fill="black"/>
<rect x="14" y="58" width="16" height="3" rx="1.5" fill="#4481F3"/>
<rect x="22" y="52" width="8" height="3" rx="1.5" fill="#4481F3"/>
<rect x="5" y="64" width="25" height="3" rx="1.5" fill="#4481F3"/>
</g>
<defs>
<clipPath id="clip0_102_43">
<rect width="143" height="83" fill="white"/>
</clipPath>
</defs>
</svg>
