<svg width="164" height="42" viewBox="0 0 164 42" fill="none" xmlns="http://www.w3.org/2000/svg">
<g clip-path="url(#clip0_110_49)">
<rect width="164" height="42" fill="#4481F3"/>
<path d="M20 0H164V42H0L20 0Z" fill="#4481F3"/>
<rect x="18.2861" y="26.0317" width="11.1746" height="2.09524" rx="1.04762" fill="white"/>
<rect x="23.8735" y="21.8413" width="5.5873" height="2.09524" rx="1.04762" fill="white"/>
<rect x="12" y="30.2222" width="17.4603" height="2.09524" rx="1.04762" fill="white"/>
<path d="M60.7418 12.8914C61.1478 12.8914 61.4768 12.5623 61.4768 12.1564C61.4768 11.7505 61.1478 11.4214 60.7418 11.4214C60.3359 11.4214 60.0068 11.7505 60.0068 12.1564C60.0068 12.5623 60.3359 12.8914 60.7418 12.8914Z" fill="white"/>
<path d="M40.8043 6.7039C41.2103 6.7039 41.5393 6.37483 41.5393 5.96889C41.5393 5.56296 41.2103 5.23389 40.8043 5.23389C40.3984 5.23389 40.0693 5.56296 40.0693 5.96889C40.0693 6.37483 40.3984 6.7039 40.8043 6.7039Z" fill="white"/>
<path d="M66.5403 33.125H71.3982V25.8959L66.5857 23.5L63.4754 17.3125H56.3921" stroke="white" stroke-width="1.4" stroke-linecap="round" stroke-linejoin="round"/>
<path d="M43.6729 33.125H59.84" stroke="white" stroke-width="1.4" stroke-linecap="round" stroke-linejoin="round"/>
<path d="M36.8497 12.5H31.5229V33.125H36.9501" stroke="white" stroke-width="1.4" stroke-linecap="round" stroke-linejoin="round"/>
<path d="M56.2731 29.6875V12.5H51.5713" stroke="white" stroke-width="1.4" stroke-linecap="round" stroke-linejoin="round"/>
<path d="M59.0229 26.25H60.3979" stroke="#4E3A3A" stroke-width="1.4" stroke-linecap="round" stroke-linejoin="round"/>
<path d="M63.2031 36.9062C65.0067 36.9062 66.4688 35.4442 66.4688 33.6406C66.4688 31.8371 65.0067 30.375 63.2031 30.375C61.3996 30.375 59.9375 31.8371 59.9375 33.6406C59.9375 35.4442 61.3996 36.9062 63.2031 36.9062Z" stroke="#4E3A3A" stroke-width="1.4" stroke-linecap="round" stroke-linejoin="round"/>
<path d="M40.2822 36.9062C42.0858 36.9062 43.5479 35.4442 43.5479 33.6406C43.5479 31.8371 42.0858 30.375 40.2822 30.375C38.4787 30.375 37.0166 31.8371 37.0166 33.6406C37.0166 35.4442 38.4787 36.9062 40.2822 36.9062Z" stroke="#4E3A3A" stroke-width="1.4" stroke-linecap="round" stroke-linejoin="round"/>
<path d="M47.3354 21.4375H45.2729V25.5625H47.3354" stroke="white" stroke-width="1.4" stroke-linecap="round" stroke-linejoin="round"/>
<path d="M47.3354 23.5H45.2729" stroke="white" stroke-width="1.4" stroke-linecap="round" stroke-linejoin="round"/>
<path d="M51.4604 21.4375H49.3979V25.5625H51.4604" stroke="white" stroke-width="1.4" stroke-linecap="round" stroke-linejoin="round"/>
<path d="M51.4604 23.5H49.3979" stroke="white" stroke-width="1.4" stroke-linecap="round" stroke-linejoin="round"/>
<path d="M38.3979 21.4375H36.3354V25.5625" stroke="white" stroke-width="1.4" stroke-linecap="round" stroke-linejoin="round"/>
<path d="M38.3979 23.5H36.3354" stroke="white" stroke-width="1.4" stroke-linecap="round" stroke-linejoin="round"/>
<path d="M40.4604 25.5625V21.4375H42.2781C42.5254 21.4375 42.7625 21.5357 42.9374 21.7106C43.1122 21.8854 43.2104 22.1226 43.2104 22.3698V22.5677C43.2104 22.8149 43.1122 23.0521 42.9374 23.2269C42.7625 23.4018 42.5254 23.5 42.2781 23.5H41.1479L43.2104 25.5625" stroke="white" stroke-width="1.4" stroke-linecap="round" stroke-linejoin="round"/>
<path d="M51.1551 11.6413L48.4511 8.26135C48.2478 7.9954 47.9575 7.80941 47.631 7.73595C47.3045 7.66248 46.9625 7.70622 46.6649 7.8595C46.4899 7.95659 46.3381 8.09071 46.2203 8.2525C46.1024 8.4143 46.0213 8.59986 45.9825 8.79625C45.9438 8.99264 45.9483 9.19512 45.9959 9.38955C46.0435 9.58399 46.133 9.7657 46.258 9.922L47.2205 11.1251H38.394C38.0294 11.1251 37.6796 11.27 37.4218 11.5279C37.1639 11.7857 37.019 12.1355 37.019 12.5001C37.019 12.8648 37.1639 13.2145 37.4218 13.4724C37.6796 13.7303 38.0294 13.8751 38.394 13.8751H47.2208L46.3153 15.0069C46.0754 15.3006 45.9598 15.6765 45.9934 16.0543C46.0269 16.4321 46.2068 16.7817 46.4947 17.0286C46.7802 17.2476 47.1401 17.3459 47.4972 17.3025C47.8544 17.2592 48.1803 17.0776 48.4051 16.7967L51.1551 13.3592C51.3501 13.1154 51.4564 12.8124 51.4564 12.5002C51.4564 12.188 51.3501 11.8851 51.1551 11.6413V11.6413Z" stroke="white" stroke-width="1.4" stroke-linecap="round" stroke-linejoin="round"/>
<path d="M34.4014 8.33691L32.3389 10.3994" stroke="white" stroke-width="1.4" stroke-linecap="round" stroke-linejoin="round"/>
<path d="M32.3389 8.33691L34.4014 10.3994" stroke="white" stroke-width="1.4" stroke-linecap="round" stroke-linejoin="round"/>
<path d="M56.2729 23.5H66.5854" stroke="white" stroke-width="1.4" stroke-linejoin="round"/>
<path d="M31.5229 30.375H71.3979" stroke="white" stroke-width="1.4" stroke-linejoin="round"/>
<path d="M75.9238 27.2979C75.9238 24.8271 76.5612 22.8649 77.8359 21.4111C79.1107 19.9574 80.9297 19.2305 83.293 19.2305C85.6562 19.2305 87.4753 19.9574 88.75 21.4111C90.0247 22.8649 90.6621 24.8271 90.6621 27.2979C90.6621 29.7686 90.0247 31.7308 88.75 33.1846C87.4753 34.6383 85.6562 35.3652 83.293 35.3652C80.9297 35.3652 79.1107 34.6383 77.8359 33.1846C76.5612 31.7308 75.9238 29.7686 75.9238 27.2979ZM79.2754 27.2979C79.2754 29.0882 79.5941 30.4596 80.2314 31.4121C80.876 32.3574 81.8965 32.8301 83.293 32.8301C84.6895 32.8301 85.7064 32.3574 86.3438 31.4121C86.9883 30.4596 87.3105 29.0882 87.3105 27.2979C87.3105 25.5075 86.9883 24.1396 86.3438 23.1943C85.7064 22.2419 84.6895 21.7656 83.293 21.7656C81.8965 21.7656 80.876 22.2419 80.2314 23.1943C79.5941 24.1396 79.2754 25.5075 79.2754 27.2979ZM93.6914 35C93.2617 35 93.0469 34.7852 93.0469 34.3555V24.3652C93.0469 23.9355 93.2617 23.7207 93.6914 23.7207H95.3887C95.8184 23.7207 96.0332 23.9355 96.0332 24.3652V24.9883H96.0762C96.4056 24.4225 96.8245 24.0358 97.333 23.8281C97.8415 23.6133 98.4538 23.5059 99.1699 23.5059C100.287 23.5059 101.211 23.8568 101.941 24.5586C102.672 25.2604 103.037 26.5423 103.037 28.4043V34.3555C103.037 34.7852 102.822 35 102.393 35H100.674C100.244 35 100.029 34.7852 100.029 34.3555V29.1777C100.029 27.6165 99.9219 26.6318 99.707 26.2236C99.4922 25.8154 99.0303 25.6113 98.3213 25.6113C97.5693 25.6113 97.0036 25.9049 96.624 26.4922C96.2445 27.0723 96.0547 28.2826 96.0547 30.123V34.3555C96.0547 34.7852 95.8398 35 95.4102 35H93.6914ZM105.336 29.3604C105.336 27.7848 105.676 26.417 106.356 25.2568C107.044 24.0895 108.229 23.5059 109.912 23.5059C110.557 23.5059 111.108 23.599 111.566 23.7852C112.025 23.9714 112.44 24.3724 112.812 24.9883H112.855L112.898 24.3652C112.927 23.9355 113.12 23.7207 113.479 23.7207H115.176C115.605 23.7207 115.82 23.9355 115.82 24.3652V34.8818C115.82 36.6364 115.348 37.8467 114.402 38.5127C113.457 39.1787 112.089 39.5117 110.299 39.5117C109.54 39.5117 108.838 39.4723 108.193 39.3936C107.549 39.3148 106.897 39.1178 106.238 38.8027C105.895 38.638 105.837 38.3265 106.066 37.8682L106.453 37.0947C106.611 36.7796 106.872 36.708 107.237 36.8799C107.531 37.016 107.893 37.1377 108.322 37.2451C108.759 37.3525 109.311 37.4062 109.977 37.4062C110.893 37.4062 111.595 37.2344 112.082 36.8906C112.569 36.554 112.812 35.8128 112.812 34.667V34.4844C112.812 34.1979 112.827 33.9115 112.855 33.625H112.812C112.44 34.2409 112.025 34.6419 111.566 34.8281C111.108 35.0143 110.557 35.1074 109.912 35.1074C108.229 35.1074 107.044 34.5273 106.356 33.3672C105.676 32.1999 105.336 30.8643 105.336 29.3604ZM108.516 29.3604C108.516 30.4346 108.662 31.3118 108.956 31.9922C109.257 32.6654 109.891 33.002 110.857 33.002C111.395 33.002 111.853 32.7012 112.232 32.0996C112.619 31.4909 112.812 30.7031 112.812 29.7363V28.877C112.812 27.9102 112.619 27.126 112.232 26.5244C111.853 25.9157 111.395 25.6113 110.857 25.6113C109.891 25.6113 109.257 25.9515 108.956 26.6318C108.662 27.305 108.516 28.2145 108.516 29.3604ZM119.387 35C118.957 35 118.742 34.7852 118.742 34.3555V19.7891C118.742 19.3594 118.957 19.1445 119.387 19.1445H121.105C121.535 19.1445 121.75 19.3594 121.75 19.7891V27.6846C121.75 27.971 121.736 28.2575 121.707 28.5439H121.75L125.155 24.1611C125.384 23.8675 125.664 23.7207 125.993 23.7207H127.755C128.414 23.7207 128.525 23.9857 128.088 24.5156L124.844 28.4365L128.604 34.2051C128.947 34.735 128.836 35 128.271 35H126.434C126.076 35 125.782 34.8138 125.553 34.4414L123.114 30.5205L121.75 32.1641V34.3555C121.75 34.7852 121.535 35 121.105 35H119.387ZM131.375 35C130.945 35 130.73 34.7852 130.73 34.3555V24.3652C130.73 23.9355 130.945 23.7207 131.375 23.7207H133.094C133.523 23.7207 133.738 23.9355 133.738 24.3652V34.3555C133.738 34.7852 133.523 35 133.094 35H131.375ZM131.375 22.0664C130.945 22.0664 130.73 21.8516 130.73 21.4219V20.0469C130.73 19.6172 130.945 19.4023 131.375 19.4023H133.094C133.523 19.4023 133.738 19.6172 133.738 20.0469V21.4219C133.738 21.8516 133.523 22.0664 133.094 22.0664H131.375ZM137.305 35C136.875 35 136.66 34.7852 136.66 34.3555V24.3652C136.66 23.9355 136.875 23.7207 137.305 23.7207H139.002C139.432 23.7207 139.646 23.9355 139.646 24.3652V25.2461H139.689C139.876 24.7878 140.187 24.3831 140.624 24.0322C141.061 23.6813 141.576 23.5059 142.171 23.5059C142.579 23.5059 142.916 23.556 143.181 23.6562C143.431 23.7493 143.528 23.9212 143.471 24.1719L143.17 25.4502C143.105 25.7367 142.912 25.8226 142.59 25.708C142.404 25.6436 142.225 25.6113 142.053 25.6113C141.365 25.6113 140.796 26.0231 140.345 26.8467C139.894 27.6702 139.668 28.8698 139.668 30.4453V34.3555C139.668 34.7852 139.453 35 139.023 35H137.305Z" fill="white"/>
<rect width="2.54371" height="18.1755" rx="1.27185" transform="matrix(0.70028 0.713868 -0.70028 0.713868 146.309 -9)" fill="white"/>
<rect width="2.16439" height="29.38" rx="1.0822" transform="matrix(0.70028 0.713868 -0.70028 0.713868 153.574 -5.6709)" fill="white"/>
<rect width="2.39031" height="29.3214" rx="1.19515" transform="matrix(0.70028 0.713868 -0.70028 0.713868 164.416 -5.83252)" fill="white"/>
<path d="M78.0215 16C77.6113 16 77.4062 15.7803 77.4062 15.3408V4.05566C77.4062 3.61621 77.6113 3.39648 78.0215 3.39648H84.9736C85.4131 3.39648 85.6328 3.58691 85.6328 3.96777V5.00488C85.6328 5.38574 85.4131 5.57617 84.9736 5.57617H79.9727V8.63477H84.2529C84.6924 8.63477 84.9121 8.8252 84.9121 9.20605V10.2432C84.9121 10.624 84.6924 10.8145 84.2529 10.8145H79.9727V15.3408C79.9727 15.7803 79.7676 16 79.3574 16H78.0215ZM88.3574 16C87.9473 16 87.7422 15.7803 87.7422 15.3408V4.05566C87.7422 3.61621 87.9473 3.39648 88.3574 3.39648H92.4268C94.2373 3.39648 95.5586 3.67773 96.3906 4.24023C97.2227 4.79687 97.6387 5.70508 97.6387 6.96484C97.6387 7.90234 97.3018 8.64941 96.6279 9.20605C95.9541 9.7627 95.0986 10.1318 94.0615 10.3135V10.3311C94.624 10.542 95.0488 10.835 95.3359 11.21C95.623 11.585 95.8574 11.9131 96.0391 12.1943L97.9727 15.2441C98.2949 15.748 98.1836 16 97.6387 16H96.1094C95.7871 16 95.5234 15.8271 95.3184 15.4814L93.543 12.5195C93.3496 12.2031 92.9951 11.8574 92.4795 11.4824C91.9697 11.1016 91.4629 10.9111 90.959 10.9111H90.3086V15.3408C90.3086 15.7803 90.1035 16 89.6934 16H88.3574ZM90.3086 8.73145H91.8818C93.0537 8.73145 93.8857 8.59961 94.3779 8.33594C94.876 8.06641 95.125 7.6416 95.125 7.06152C95.125 6.42871 94.8848 6.01855 94.4043 5.83105C93.9297 5.6377 93.2295 5.54102 92.3037 5.54102H90.3086V8.73145ZM100.908 16C100.498 16 100.293 15.7803 100.293 15.3408V4.05566C100.293 3.61621 100.498 3.39648 100.908 3.39648H108.449C108.889 3.39648 109.108 3.58691 109.108 3.96777V5.00488C109.108 5.38574 108.889 5.57617 108.449 5.57617H102.859V8.37109H107.983C108.423 8.37109 108.643 8.56152 108.643 8.94238V9.97949C108.643 10.3604 108.423 10.5508 107.983 10.5508H102.859V13.8203H108.73C109.17 13.8203 109.39 14.0107 109.39 14.3916V15.4287C109.39 15.8096 109.17 16 108.73 16H100.908ZM112.158 16C111.748 16 111.543 15.7803 111.543 15.3408V4.05566C111.543 3.61621 111.748 3.39648 112.158 3.39648H119.699C120.139 3.39648 120.358 3.58691 120.358 3.96777V5.00488C120.358 5.38574 120.139 5.57617 119.699 5.57617H114.109V8.37109H119.233C119.673 8.37109 119.893 8.56152 119.893 8.94238V9.97949C119.893 10.3604 119.673 10.5508 119.233 10.5508H114.109V13.8203H119.98C120.42 13.8203 120.64 14.0107 120.64 14.3916V15.4287C120.64 15.8096 120.42 16 119.98 16H112.158Z" fill="white"/>
</g>
<defs>
<clipPath id="clip0_110_49">
<rect width="164" height="42" fill="white"/>
</clipPath>
</defs>
</svg>
