<svg width="144" height="40" viewBox="0 0 144 40" fill="none" xmlns="http://www.w3.org/2000/svg">
<g clip-path="url(#clip0_103_90)">
<rect y="-0.931152" width="144" height="40.7761" fill="#4481F3" fill-opacity="0.1"/>
<path d="M38.0114 24.1512C34.9498 21.7604 31.1056 20.3242 26.9174 20.3242C16.9414 20.3242 8.85742 28.4082 8.85742 38.3842C8.85742 39.7172 9.01222 41.0158 9.28742 42.2714H38.0114V24.1512Z" fill="#4481F3"/>
<path d="M36.936 27.0066C36.42 25.5618 34.7 24.934 33.2896 25.5274L19.7876 31.255C20.1832 30.9712 20.51 30.5756 20.6992 30.094C21.2496 28.7352 20.596 27.2044 19.2372 26.654L12.0132 23.73C10.534 23.128 8.87422 23.1452 7.40362 23.773L1.22021 26.396L4.72901 34.6692L7.60142 33.448L16.64 37.103C17.586 37.49 18.6524 37.4814 19.5898 37.0772L35.4912 30.3262C36.162 30.0424 36.6522 29.5092 36.9102 28.89C37.1338 28.3138 37.1682 27.6344 36.936 27.0066Z" fill="white"/>
<path d="M0.66165 39.8723L-2.46875 25.9919L0.49825 24.7363L5.56365 36.6731L0.66165 39.8723Z" fill="#4481F3"/>
<path d="M24.6985 24.7275C30.5928 24.7275 35.3711 19.9492 35.3711 14.0549C35.3711 8.16061 30.5928 3.38232 24.6985 3.38232C18.8042 3.38232 14.0259 8.16061 14.0259 14.0549C14.0259 19.9492 18.8042 24.7275 24.6985 24.7275Z" fill="#D7E1F4"/>
<path d="M37.2716 27.9609C36.9276 27.8663 36.5664 28.0813 36.4804 28.4167C36.4374 28.5801 36.4632 28.7607 36.5492 28.9069C36.6352 29.0531 36.7728 29.1563 36.9362 29.2079C36.9964 29.2165 37.048 29.2251 37.1082 29.2251C37.392 29.2251 37.65 29.0273 37.7274 28.7435C37.822 28.3995 37.6156 28.0469 37.2716 27.9609Z" fill="#505050"/>
<path d="M35.7752 29.4833C35.6376 29.5865 35.4914 29.6811 35.328 29.7499L19.4266 36.4923C18.6526 36.8191 17.7582 36.8277 16.9756 36.5095L7.92844 32.8545C7.77364 32.7857 7.59304 32.7943 7.43824 32.8545L5.15924 33.8263L2.15784 26.7399L7.74784 24.3749C9.05504 23.8159 10.5514 23.8073 11.8672 24.3319L19.0912 27.2559C19.848 27.5655 20.3468 28.2879 20.3468 29.1049C20.3468 29.3543 20.2952 29.6123 20.192 29.8531C20.0716 30.1627 19.8652 30.4293 19.6072 30.6357C19.3664 30.6615 19.1428 30.6529 18.8934 30.5927C18.8074 30.5755 18.73 30.5497 18.6354 30.5153L12.366 28.6749C12.0306 28.5717 11.6608 28.7781 11.5662 29.1049C11.463 29.4489 11.6608 29.8101 11.9962 29.9133L18.1796 31.7193C18.3086 31.7709 18.4462 31.8139 18.5924 31.8483C18.859 31.9171 19.1256 31.9515 19.4008 31.9515C19.5986 31.9515 19.805 31.9257 20.0028 31.8913C20.0286 31.8827 20.0544 31.8655 20.0802 31.8569C20.0974 31.8483 20.1146 31.8569 20.1318 31.8483L33.6424 26.1207C33.909 26.0089 34.2014 25.9487 34.4938 25.9487C35.3538 25.9487 36.0934 26.4217 36.3944 27.1441C36.5234 27.4623 36.9104 27.6257 37.2372 27.4881C37.392 27.4279 37.521 27.2989 37.5898 27.1441C37.65 26.9893 37.65 26.8087 37.5898 26.6453C37.0824 25.4413 35.8698 24.6587 34.4938 24.6587C34.0208 24.6587 33.565 24.7533 33.135 24.9339L21.5422 29.8531C21.6024 29.6037 21.6368 29.3543 21.6368 29.1049C21.6368 27.7633 20.8284 26.5679 19.5728 26.0605L12.3488 23.1365C10.7234 22.4829 8.85724 22.4915 7.24044 23.1881L1.65044 25.5617L1.19464 24.4781C1.05704 24.1599 0.670039 24.0051 0.351839 24.1427L-2.61516 25.3983C-2.90756 25.5187 -3.06236 25.8283 -2.99356 26.1293L0.128239 40.0183C0.171239 40.2247 0.317439 40.3881 0.515239 40.4741C0.59264 40.4999 0.67864 40.5171 0.75604 40.5171C0.88504 40.5171 1.00544 40.4827 1.10864 40.4139L6.01924 37.2147C6.27724 37.0427 6.38044 36.7073 6.26004 36.4235L5.65804 35.0131L7.69624 34.1531L16.4854 37.7049C17.0272 37.9285 17.5948 38.0403 18.1796 38.0403C18.7816 38.0403 19.375 37.9199 19.934 37.6791L35.8354 30.9367C36.0934 30.8249 36.3428 30.6787 36.5664 30.4981C36.8502 30.2831 36.9018 29.8789 36.6782 29.5951C36.4718 29.3199 36.0504 29.2683 35.7752 29.4833ZM1.18604 38.8229L-1.61756 26.3701L0.257239 25.5789L0.71304 26.6539C0.71304 26.6539 4.23044 34.9443 4.23904 34.9443L4.86684 36.4321L1.18604 38.8229Z" fill="#505050"/>
<path d="M24.8015 25.3811C31.0451 25.3811 36.1277 20.2985 36.1277 14.0549C36.1277 7.8113 31.0451 2.7373 24.8015 2.7373C18.5579 2.7373 13.4839 7.8113 13.4839 14.0549C13.4839 20.2985 18.5579 25.3811 24.8015 25.3811ZM24.8015 4.0273C30.3313 4.0273 34.8377 8.52511 34.8377 14.0549C34.8377 19.5847 30.3399 24.0911 24.8015 24.0911C19.2631 24.0911 14.7653 19.5933 14.7653 14.0549C14.7739 8.52511 19.2717 4.0273 24.8015 4.0273Z" fill="#505050"/>
<path d="M19.2061 17.2441C19.027 17.2441 18.9375 17.1457 18.9375 16.9487V9.8374C18.9375 9.64046 19.027 9.54199 19.2061 9.54199H21.8003C22.8351 9.54199 23.5835 9.73535 24.0454 10.1221C24.5109 10.5088 24.7437 11.019 24.7437 11.6528C24.7437 12.2114 24.5557 12.6805 24.1797 13.0601C23.8073 13.4396 23.2756 13.658 22.5845 13.7153V13.7261C22.9497 13.9982 23.1914 14.2059 23.3096 14.3491C23.4277 14.4888 23.5602 14.6785 23.707 14.9185L24.9209 16.8896C25.0677 17.126 25.0355 17.2441 24.8242 17.2441H24.2119C24.0436 17.2441 23.9183 17.1743 23.8359 17.0347L22.7188 15.1172C22.5576 14.8415 22.3267 14.5711 22.0259 14.3062C21.7251 14.0412 21.3509 13.9087 20.9033 13.9087H19.9688V16.9487C19.9688 17.1457 19.8792 17.2441 19.7002 17.2441H19.2061ZM19.9688 13.0278H21.521C22.2192 13.0278 22.7563 12.9365 23.1323 12.7539C23.5083 12.5677 23.6963 12.1792 23.6963 11.5884C23.6963 11.1372 23.5244 10.8311 23.1807 10.6699C22.8369 10.5052 22.3696 10.4229 21.7788 10.4229H19.9688V13.0278ZM26.5161 19.3926C26.355 19.3926 26.2744 19.312 26.2744 19.1509V11.8462C26.2744 11.6851 26.355 11.6045 26.5161 11.6045H26.9673C27.0962 11.6045 27.166 11.6851 27.1768 11.8462L27.209 12.2759H27.2197C27.4167 12.0396 27.6387 11.8534 27.8857 11.7173C28.1328 11.5812 28.4622 11.5132 28.874 11.5132C29.5902 11.5132 30.1344 11.8068 30.5068 12.394C30.8792 12.9777 31.0654 13.6545 31.0654 14.4243C31.0654 15.1942 30.8792 15.8727 30.5068 16.46C30.1344 17.0436 29.5902 17.3354 28.874 17.3354C28.4622 17.3354 28.1328 17.2674 27.8857 17.1313C27.6387 16.9953 27.4167 16.8091 27.2197 16.5728H27.209C27.2161 16.6802 27.2197 16.7894 27.2197 16.9004V19.1509C27.2197 19.312 27.1392 19.3926 26.978 19.3926H26.5161ZM27.2197 15.042C27.2197 15.5791 27.3468 15.9801 27.6011 16.2451C27.8589 16.5065 28.1812 16.6372 28.5679 16.6372C29.1121 16.6372 29.4971 16.4331 29.7227 16.0249C29.9518 15.6167 30.0664 15.0832 30.0664 14.4243C30.0664 13.7655 29.9518 13.2319 29.7227 12.8237C29.4971 12.4155 29.1121 12.2114 28.5679 12.2114C28.1812 12.2114 27.8589 12.3439 27.6011 12.6089C27.3468 12.8703 27.2197 13.2695 27.2197 13.8066V15.042Z" fill="#FF0000"/>
<path d="M40.9238 27.6768C40.9238 25.2061 41.5505 23.2438 42.8037 21.79C44.057 20.3363 45.8652 19.6094 48.2285 19.6094C49.5892 19.6094 50.7422 19.8206 51.6875 20.2432C52.6328 20.6657 53.2988 21.278 53.6855 22.0801C53.9434 22.61 53.9004 22.9681 53.5566 23.1543L52.2676 23.8418C51.8164 24.0853 51.444 23.9492 51.1504 23.4336C50.9642 23.1042 50.6169 22.807 50.1084 22.542C49.6071 22.277 49.0163 22.1445 48.3359 22.1445C46.832 22.1445 45.7793 22.6208 45.1777 23.5732C44.5762 24.5186 44.2754 25.8864 44.2754 27.6768C44.2754 29.4671 44.5762 30.8385 45.1777 31.791C45.7793 32.7363 46.832 33.209 48.3359 33.209C49.1452 33.209 49.8255 33.0264 50.377 32.6611C50.9355 32.2959 51.3223 31.9486 51.5371 31.6191C51.888 31.082 52.2604 30.946 52.6543 31.2109L53.9434 32.0703C54.2943 32.3066 54.3301 32.6647 54.0508 33.1445C53.6354 33.8607 52.9229 34.473 51.9131 34.9814C50.9033 35.4899 49.6751 35.7441 48.2285 35.7441C45.901 35.7441 44.0999 35.0173 42.8252 33.5635C41.5576 32.1097 40.9238 30.1475 40.9238 27.6768ZM56.0918 32.3711C56.0918 30.9388 56.7757 29.9004 58.1436 29.2559C59.5114 28.6113 61.0726 28.2676 62.8271 28.2246V27.7949C62.8271 27.1361 62.6624 26.6706 62.333 26.3984C62.0036 26.1263 61.5452 25.9902 60.958 25.9902C60.5426 25.9902 60.1738 26.0511 59.8516 26.1729C59.5365 26.2874 59.2607 26.4235 59.0244 26.5811C58.7952 26.7314 58.5876 26.8854 58.4014 27.043C58.0719 27.3294 57.7998 27.3438 57.585 27.0859L56.6934 25.9902C56.4714 25.7181 56.5251 25.4388 56.8545 25.1523C57.1051 24.9303 57.3952 24.737 57.7246 24.5723C58.0612 24.4076 58.5052 24.2536 59.0566 24.1104C59.6081 23.96 60.3242 23.8848 61.2051 23.8848C62.6947 23.8848 63.8369 24.2285 64.6318 24.916C65.4339 25.6035 65.835 26.6169 65.835 27.9561V34.7344C65.835 35.1641 65.6201 35.3789 65.1904 35.3789H63.4287C63.042 35.3789 62.8486 35.1641 62.8486 34.7344V34.4121H62.8271C62.4046 34.8203 61.8962 35.1211 61.3018 35.3145C60.7145 35.5007 60.1738 35.5938 59.6797 35.5938C58.5052 35.5938 57.6136 35.3073 57.0049 34.7344C56.3962 34.1543 56.0918 33.3665 56.0918 32.3711ZM59.2715 32.3066C59.2715 32.5573 59.3216 32.7757 59.4219 32.9619C59.5221 33.141 59.6797 33.2734 59.8945 33.3594C60.1094 33.4453 60.3493 33.4883 60.6143 33.4883C60.9795 33.4883 61.334 33.4382 61.6777 33.3379C62.0215 33.2376 62.4046 33.0013 62.8271 32.6289V30.2979C61.624 30.4339 60.8184 30.6094 60.4102 30.8242C60.002 31.0391 59.7083 31.2611 59.5293 31.4902C59.3574 31.7194 59.2715 31.9915 59.2715 32.3066ZM68.542 34.627C68.1911 34.3763 68.0944 34.1077 68.252 33.8213L68.7998 32.8223C68.9932 32.4642 69.2939 32.4212 69.7021 32.6934C70.1104 32.9655 70.5902 33.166 71.1416 33.2949C71.7002 33.4238 72.2087 33.4883 72.667 33.4883C72.9893 33.4883 73.29 33.4561 73.5693 33.3916C73.8486 33.3271 74.085 33.2018 74.2783 33.0156C74.4717 32.8294 74.5684 32.5573 74.5684 32.1992C74.5684 31.9844 74.5111 31.8018 74.3965 31.6514C74.2819 31.501 74.1351 31.3864 73.9561 31.3076C73.777 31.2288 73.5872 31.1644 73.3867 31.1143C73.1217 31.0498 72.7386 30.9424 72.2373 30.792C71.7432 30.6416 71.2669 30.4661 70.8086 30.2656C70.429 30.1009 70.0566 29.8717 69.6914 29.5781C69.3333 29.2773 69.0684 28.9443 68.8965 28.5791C68.7318 28.2139 68.6494 27.7627 68.6494 27.2256C68.6494 26.5023 68.8571 25.8685 69.2725 25.3242C69.695 24.7799 70.2393 24.404 70.9053 24.1963C71.5713 23.9886 72.402 23.8848 73.3975 23.8848C74.0706 23.8848 74.7259 23.9814 75.3633 24.1748C76.0007 24.3682 76.4554 24.5508 76.7275 24.7227C77.1572 24.9948 77.2646 25.2848 77.0498 25.5928L76.3945 26.5488C76.194 26.8353 75.8717 26.8568 75.4277 26.6133C75.0911 26.4271 74.7581 26.2767 74.4287 26.1621C74.1064 26.0475 73.7448 25.9902 73.3438 25.9902C73.0716 25.9902 72.8102 26.0189 72.5596 26.0762C72.3089 26.1335 72.0941 26.2409 71.915 26.3984C71.7432 26.556 71.6572 26.7637 71.6572 27.0215C71.6572 27.2936 71.736 27.5085 71.8936 27.666C72.0583 27.8164 72.2445 27.9274 72.4521 27.999C72.667 28.0706 72.8711 28.1387 73.0645 28.2031C73.4655 28.332 73.8701 28.4574 74.2783 28.5791C74.6865 28.6937 75.1019 28.8333 75.5244 28.998C75.8896 29.1413 76.2441 29.3454 76.5879 29.6104C76.9316 29.8753 77.1823 30.2119 77.3398 30.6201C77.4974 31.0283 77.5762 31.4938 77.5762 32.0166C77.5762 32.7113 77.3685 33.3558 76.9531 33.9502C76.5378 34.5446 75.9899 34.9671 75.3096 35.2178C74.6292 35.4684 73.8379 35.5938 72.9355 35.5938C71.9258 35.5938 71.0664 35.5221 70.3574 35.3789C69.6484 35.2357 69.0433 34.985 68.542 34.627ZM80.2188 35.3789C79.7891 35.3789 79.5742 35.1641 79.5742 34.7344V20.168C79.5742 19.7383 79.7891 19.5234 80.2188 19.5234H81.9375C82.3672 19.5234 82.582 19.7383 82.582 20.168V24.5078C82.582 24.7943 82.5677 25.0807 82.5391 25.3672H82.6035C82.9329 24.8014 83.3519 24.4147 83.8604 24.207C84.3688 23.9922 84.9811 23.8848 85.6973 23.8848C86.8145 23.8848 87.7383 24.2357 88.4688 24.9375C89.1992 25.6393 89.5645 26.9212 89.5645 28.7832V34.7344C89.5645 35.1641 89.3496 35.3789 88.9199 35.3789H87.2012C86.7715 35.3789 86.5566 35.1641 86.5566 34.7344V29.5566C86.5566 27.9954 86.4492 27.0107 86.2344 26.6025C86.0195 26.1943 85.5576 25.9902 84.8486 25.9902C84.0967 25.9902 83.5309 26.2839 83.1514 26.8711C82.7718 27.4512 82.582 28.6615 82.582 30.502V34.7344C82.582 35.1641 82.3672 35.3789 81.9375 35.3789H80.2188ZM93.1094 35.3789C92.6797 35.3789 92.4648 35.1641 92.4648 34.7344V20.168C92.4648 19.7383 92.6797 19.5234 93.1094 19.5234H94.8281C95.2578 19.5234 95.4727 19.7383 95.4727 20.168V24.5078C95.4727 24.7943 95.4583 25.0807 95.4297 25.3672H95.4727C95.8451 24.7513 96.2604 24.3503 96.7188 24.1641C97.1771 23.9779 97.7285 23.8848 98.373 23.8848C100.056 23.8848 101.238 24.4684 101.918 25.6357C102.605 26.7959 102.949 28.1637 102.949 29.7393C102.949 31.3148 102.605 32.6862 101.918 33.8535C101.238 35.0137 100.056 35.5938 98.373 35.5938C97.7285 35.5938 97.1771 35.5007 96.7188 35.3145C96.2604 35.1283 95.8451 34.7272 95.4727 34.1113H95.4297L95.3867 34.7344C95.3581 35.1641 95.1647 35.3789 94.8066 35.3789H93.1094ZM95.4727 30.2227C95.4727 31.1895 95.6624 31.9772 96.042 32.5859C96.4287 33.1875 96.8906 33.4883 97.4277 33.4883C98.3945 33.4883 99.0247 33.1517 99.3184 32.4785C99.6191 31.7982 99.7695 30.8851 99.7695 29.7393C99.7695 28.5934 99.6191 27.6839 99.3184 27.0107C99.0247 26.3304 98.3945 25.9902 97.4277 25.9902C96.8906 25.9902 96.4287 26.2946 96.042 26.9033C95.6624 27.5049 95.4727 28.2891 95.4727 29.2559V30.2227ZM104.668 32.3711C104.668 30.9388 105.352 29.9004 106.72 29.2559C108.088 28.6113 109.649 28.2676 111.403 28.2246V27.7949C111.403 27.1361 111.239 26.6706 110.909 26.3984C110.58 26.1263 110.121 25.9902 109.534 25.9902C109.119 25.9902 108.75 26.0511 108.428 26.1729C108.113 26.2874 107.837 26.4235 107.601 26.5811C107.371 26.7314 107.164 26.8854 106.978 27.043C106.648 27.3294 106.376 27.3438 106.161 27.0859L105.27 25.9902C105.048 25.7181 105.101 25.4388 105.431 25.1523C105.681 24.9303 105.971 24.737 106.301 24.5723C106.637 24.4076 107.081 24.2536 107.633 24.1104C108.184 23.96 108.9 23.8848 109.781 23.8848C111.271 23.8848 112.413 24.2285 113.208 24.916C114.01 25.6035 114.411 26.6169 114.411 27.9561V34.7344C114.411 35.1641 114.196 35.3789 113.767 35.3789H112.005C111.618 35.3789 111.425 35.1641 111.425 34.7344V34.4121H111.403C110.981 34.8203 110.472 35.1211 109.878 35.3145C109.291 35.5007 108.75 35.5938 108.256 35.5938C107.081 35.5938 106.19 35.3073 105.581 34.7344C104.972 34.1543 104.668 33.3665 104.668 32.3711ZM107.848 32.3066C107.848 32.5573 107.898 32.7757 107.998 32.9619C108.098 33.141 108.256 33.2734 108.471 33.3594C108.686 33.4453 108.925 33.4883 109.19 33.4883C109.556 33.4883 109.91 33.4382 110.254 33.3379C110.598 33.2376 110.981 33.0013 111.403 32.6289V30.2979C110.2 30.4339 109.395 30.6094 108.986 30.8242C108.578 31.0391 108.285 31.2611 108.105 31.4902C107.934 31.7194 107.848 31.9915 107.848 32.3066ZM116.742 29.7393C116.742 27.9131 117.201 26.4808 118.117 25.4424C119.034 24.404 120.441 23.8848 122.339 23.8848C123.449 23.8848 124.312 24.0316 124.928 24.3252C125.544 24.6188 126.038 25.0485 126.41 25.6143C126.632 25.9508 126.596 26.2158 126.303 26.4092L125.164 27.1611C124.842 27.376 124.559 27.2936 124.315 26.9141C124.194 26.7279 123.961 26.5273 123.617 26.3125C123.273 26.0977 122.847 25.9902 122.339 25.9902C121.53 25.9902 120.924 26.2767 120.523 26.8496C120.122 27.4154 119.922 28.3786 119.922 29.7393C119.922 31.0999 120.122 32.0667 120.523 32.6396C120.924 33.2054 121.53 33.4883 122.339 33.4883C122.919 33.4883 123.388 33.3665 123.746 33.123C124.104 32.8796 124.441 32.5645 124.756 32.1777C125.028 31.8483 125.314 31.8018 125.615 32.0381L126.614 32.8223C126.915 33.0586 126.933 33.3737 126.668 33.7676C126.389 34.1829 125.912 34.5911 125.239 34.9922C124.573 35.3932 123.606 35.5938 122.339 35.5938C120.441 35.5938 119.034 35.0745 118.117 34.0361C117.201 32.9977 116.742 31.5654 116.742 29.7393ZM129.654 35.3789C129.225 35.3789 129.01 35.1641 129.01 34.7344V20.168C129.01 19.7383 129.225 19.5234 129.654 19.5234H131.373C131.803 19.5234 132.018 19.7383 132.018 20.168V28.0635C132.018 28.3499 132.003 28.6364 131.975 28.9229H132.018L135.423 24.54C135.652 24.2464 135.931 24.0996 136.261 24.0996H138.022C138.681 24.0996 138.792 24.3646 138.355 24.8945L135.111 28.8154L138.871 34.584C139.215 35.1139 139.104 35.3789 138.538 35.3789H136.701C136.343 35.3789 136.049 35.1927 135.82 34.8203L133.382 30.8994L132.018 32.543V34.7344C132.018 35.1641 131.803 35.3789 131.373 35.3789H129.654Z" fill="#4481F3"/>
<path d="M42.5039 17.0688C42.276 17.0688 42.1621 16.9435 42.1621 16.6929V7.64209C42.1621 7.39144 42.276 7.26611 42.5039 7.26611H43.1328C43.3607 7.26611 43.4746 7.39144 43.4746 7.64209V11.4087H48.2461V7.64209C48.2461 7.39144 48.36 7.26611 48.5879 7.26611H49.2168C49.4447 7.26611 49.5586 7.39144 49.5586 7.64209V16.6929C49.5586 16.9435 49.4447 17.0688 49.2168 17.0688H48.5879C48.36 17.0688 48.2461 16.9435 48.2461 16.6929V12.5298H43.4746V16.6929C43.4746 16.9435 43.3607 17.0688 43.1328 17.0688H42.5039ZM51.3018 15.1548C51.3018 14.3436 51.68 13.7489 52.4365 13.3706C53.1976 12.9924 54.3324 12.7713 55.8408 12.7075V12.2427C55.8408 11.8143 55.7428 11.4451 55.5469 11.1353C55.3555 10.8208 54.9727 10.6636 54.3984 10.6636C54.0339 10.6636 53.7422 10.7 53.5234 10.7729C53.3047 10.8413 53.1042 10.9347 52.9219 11.0532C52.7441 11.1672 52.5732 11.3153 52.4092 11.4976C52.2861 11.6343 52.1699 11.6411 52.0605 11.5181L51.7051 11.1079C51.6048 10.994 51.639 10.8573 51.8076 10.6978C52.0492 10.4699 52.2839 10.299 52.5117 10.1851C52.7396 10.0711 53.0221 9.97542 53.3594 9.89795C53.7012 9.81592 54.0475 9.7749 54.3984 9.7749C55.3509 9.7749 56.0299 10.021 56.4355 10.5132C56.8411 11.0008 57.0439 11.6707 57.0439 12.5229V16.7612C57.0439 16.9663 56.9414 17.0688 56.7363 17.0688H56.1211C55.9434 17.0688 55.8545 16.9663 55.8545 16.7612V16.4263H55.8408C55.4808 16.7088 55.1276 16.9071 54.7812 17.021C54.4395 17.1304 54.0566 17.1851 53.6328 17.1851C52.8854 17.1851 52.3089 17.0073 51.9033 16.6519C51.5023 16.2918 51.3018 15.7928 51.3018 15.1548ZM52.5459 15.1821C52.5459 15.4647 52.6051 15.6925 52.7236 15.8657C52.8421 16.0343 53.0062 16.1437 53.2158 16.1938C53.4255 16.2394 53.6442 16.2622 53.8721 16.2622C54.223 16.2622 54.5557 16.228 54.8701 16.1597C55.1846 16.0913 55.5081 15.9113 55.8408 15.6196V13.603C54.9202 13.6714 54.264 13.7557 53.8721 13.856C53.4801 13.9517 53.1611 14.1203 52.915 14.3618C52.6689 14.5988 52.5459 14.8722 52.5459 15.1821ZM59.2998 19.8032C59.0947 19.8032 58.9922 19.7007 58.9922 19.4956V10.1987C58.9922 9.99365 59.0947 9.89111 59.2998 9.89111H59.874C60.0381 9.89111 60.127 9.99365 60.1406 10.1987L60.1816 10.7456H60.1953C60.446 10.4448 60.7285 10.2078 61.043 10.0347C61.3574 9.86149 61.7767 9.7749 62.3008 9.7749C63.2122 9.7749 63.9049 10.1486 64.3789 10.896C64.8529 11.6388 65.0898 12.5002 65.0898 13.48C65.0898 14.4598 64.8529 15.3234 64.3789 16.0708C63.9049 16.8136 63.2122 17.1851 62.3008 17.1851C61.7767 17.1851 61.3574 17.0985 61.043 16.9253C60.7285 16.7521 60.446 16.5151 60.1953 16.2144H60.1816C60.1908 16.3511 60.1953 16.4901 60.1953 16.6313V19.4956C60.1953 19.7007 60.0928 19.8032 59.8877 19.8032H59.2998ZM60.1953 14.2661C60.1953 14.9497 60.3571 15.4601 60.6807 15.7974C61.0088 16.13 61.4189 16.2964 61.9111 16.2964C62.6038 16.2964 63.0938 16.0366 63.3809 15.5171C63.6725 14.9976 63.8184 14.3185 63.8184 13.48C63.8184 12.6414 63.6725 11.9624 63.3809 11.4429C63.0938 10.9233 62.6038 10.6636 61.9111 10.6636C61.4189 10.6636 61.0088 10.8322 60.6807 11.1694C60.3571 11.5021 60.1953 12.0103 60.1953 12.6938V14.2661ZM66.9561 19.8032C66.751 19.8032 66.6484 19.7007 66.6484 19.4956V10.1987C66.6484 9.99365 66.751 9.89111 66.9561 9.89111H67.5303C67.6943 9.89111 67.7832 9.99365 67.7969 10.1987L67.8379 10.7456H67.8516C68.1022 10.4448 68.3848 10.2078 68.6992 10.0347C69.0137 9.86149 69.4329 9.7749 69.957 9.7749C70.8685 9.7749 71.5612 10.1486 72.0352 10.896C72.5091 11.6388 72.7461 12.5002 72.7461 13.48C72.7461 14.4598 72.5091 15.3234 72.0352 16.0708C71.5612 16.8136 70.8685 17.1851 69.957 17.1851C69.4329 17.1851 69.0137 17.0985 68.6992 16.9253C68.3848 16.7521 68.1022 16.5151 67.8516 16.2144H67.8379C67.847 16.3511 67.8516 16.4901 67.8516 16.6313V19.4956C67.8516 19.7007 67.749 19.8032 67.5439 19.8032H66.9561ZM67.8516 14.2661C67.8516 14.9497 68.0133 15.4601 68.3369 15.7974C68.665 16.13 69.0752 16.2964 69.5674 16.2964C70.2601 16.2964 70.75 16.0366 71.0371 15.5171C71.3288 14.9976 71.4746 14.3185 71.4746 13.48C71.4746 12.6414 71.3288 11.9624 71.0371 11.4429C70.75 10.9233 70.2601 10.6636 69.5674 10.6636C69.0752 10.6636 68.665 10.8322 68.3369 11.1694C68.0133 11.5021 67.8516 12.0103 67.8516 12.6938V14.2661ZM73.8057 10.2261C73.7236 10.0028 73.7852 9.89111 73.9902 9.89111H74.7354C74.8857 9.89111 74.9883 9.97998 75.043 10.1577L76.4785 14.6694C76.5195 14.7925 76.5811 14.9862 76.6631 15.2505C76.7497 15.5103 76.8112 15.7427 76.8477 15.9478H76.8613C76.8978 15.7427 76.9411 15.5581 76.9912 15.394C77.0459 15.2254 77.1257 14.9839 77.2305 14.6694L78.6797 10.1577C78.7389 9.97998 78.8415 9.89111 78.9873 9.89111H79.7324C79.9375 9.89111 79.999 10.0028 79.917 10.2261L77.6133 16.6519C77.1803 17.8595 76.793 18.7049 76.4512 19.188C76.1094 19.6756 75.599 19.9194 74.9199 19.9194C74.5645 19.9194 74.2819 19.867 74.0723 19.7622C73.9766 19.7166 73.9447 19.646 73.9766 19.5503L74.1543 18.9966C74.1862 18.9009 74.2477 18.8735 74.3389 18.9146C74.5257 18.992 74.7057 19.0308 74.8789 19.0308C75.1979 19.0308 75.4577 18.8576 75.6582 18.5112C75.8587 18.1694 76.0182 17.8254 76.1367 17.479L76.2734 17.0757L73.8057 10.2261Z" fill="#FF0000"/>
<rect width="2.54371" height="18.1755" rx="1.27185" transform="matrix(0.70028 0.713868 -0.70028 0.713868 120.775 -7)" fill="#4481F3"/>
<rect width="2.16439" height="29.38" rx="1.0822" transform="matrix(0.70028 0.713868 -0.70028 0.713868 128.041 -3.6709)" fill="#4481F3"/>
<rect width="2.39031" height="29.3214" rx="1.19515" transform="matrix(0.70028 0.713868 -0.70028 0.713868 138.883 -3.83252)" fill="#4481F3"/>
<rect width="4.03899" height="18.1755" rx="2" transform="matrix(0.70028 0.713868 -0.70028 0.713868 149.728 4.16553)" fill="#4481F3"/>
</g>
<defs>
<clipPath id="clip0_103_90">
<rect width="144" height="40" fill="white"/>
</clipPath>
</defs>
</svg>
