<svg width="164" height="42" viewBox="0 0 164 42" fill="none" xmlns="http://www.w3.org/2000/svg">
<g clip-path="url(#clip0_111_112)">
<rect width="164" height="42" fill="white"/>
<g clip-path="url(#clip1_111_112)">
<rect width="184" height="42" transform="translate(-20)" fill="#4481F3"/>
<path d="M0 0H164L144 42H-20L0 0Z" fill="#4481F3"/>
<path d="M37.9878 24.1512C34.855 21.7604 30.9214 20.3242 26.6358 20.3242C16.4278 20.3242 8.15576 28.4082 8.15576 38.3842C8.15576 39.7172 8.31416 41.0158 8.59576 42.2714H37.9878V24.1512Z" fill="white"/>
<path d="M24.3656 24.7275C30.397 24.7275 35.2864 19.9492 35.2864 14.0549C35.2864 8.16061 30.397 3.38232 24.3656 3.38232C18.3342 3.38232 13.4448 8.16061 13.4448 14.0549C13.4448 19.9492 18.3342 24.7275 24.3656 24.7275Z" fill="white"/>
<path d="M37.2309 27.9609C36.8789 27.8663 36.5093 28.0813 36.4213 28.4167C36.3773 28.5801 36.4037 28.7607 36.4917 28.9069C36.5797 29.0531 36.7205 29.1563 36.8877 29.2079C36.9493 29.2165 37.0021 29.2251 37.0637 29.2251C37.3541 29.2251 37.6181 29.0273 37.6973 28.7435C37.7941 28.3995 37.5829 28.0469 37.2309 27.9609Z" fill="#505050"/>
<path d="M24.4709 25.3811C30.8597 25.3811 36.0605 20.2985 36.0605 14.0549C36.0605 7.8113 30.8597 2.7373 24.4709 2.7373C18.0821 2.7373 12.8901 7.8113 12.8901 14.0549C12.8901 20.2985 18.0821 25.3811 24.4709 25.3811ZM24.4709 4.0273C30.1293 4.0273 34.7405 8.52511 34.7405 14.0549C34.7405 19.5847 30.1381 24.0911 24.4709 24.0911C18.8037 24.0911 14.2013 19.5933 14.2013 14.0549C14.2101 8.52511 18.8125 4.0273 24.4709 4.0273Z" fill="#505050"/>
<path d="M18.7183 17.2441C18.5392 17.2441 18.4497 17.1457 18.4497 16.9487V9.8374C18.4497 9.64046 18.5392 9.54199 18.7183 9.54199H21.3125C22.3473 9.54199 23.0957 9.73535 23.5576 10.1221C24.0231 10.5088 24.2559 11.019 24.2559 11.6528C24.2559 12.2114 24.0679 12.6805 23.6919 13.0601C23.3195 13.4396 22.7878 13.658 22.0967 13.7153V13.7261C22.4619 13.9982 22.7036 14.2059 22.8218 14.3491C22.9399 14.4888 23.0724 14.6785 23.2192 14.9185L24.4331 16.8896C24.5799 17.126 24.5477 17.2441 24.3364 17.2441H23.7241C23.5558 17.2441 23.4305 17.1743 23.3481 17.0347L22.231 15.1172C22.0698 14.8415 21.8389 14.5711 21.5381 14.3062C21.2373 14.0412 20.8631 13.9087 20.4155 13.9087H19.481V16.9487C19.481 17.1457 19.3914 17.2441 19.2124 17.2441H18.7183ZM19.481 13.0278H21.0332C21.7314 13.0278 22.2686 12.9365 22.6445 12.7539C23.0205 12.5677 23.2085 12.1792 23.2085 11.5884C23.2085 11.1372 23.0366 10.8311 22.6929 10.6699C22.3491 10.5052 21.8818 10.4229 21.291 10.4229H19.481V13.0278ZM26.0283 19.3926C25.8672 19.3926 25.7866 19.312 25.7866 19.1509V11.8462C25.7866 11.6851 25.8672 11.6045 26.0283 11.6045H26.4795C26.6084 11.6045 26.6782 11.6851 26.689 11.8462L26.7212 12.2759H26.7319C26.9289 12.0396 27.1509 11.8534 27.3979 11.7173C27.645 11.5812 27.9744 11.5132 28.3862 11.5132C29.1024 11.5132 29.6466 11.8068 30.019 12.394C30.3914 12.9777 30.5776 13.6545 30.5776 14.4243C30.5776 15.1942 30.3914 15.8727 30.019 16.46C29.6466 17.0436 29.1024 17.3354 28.3862 17.3354C27.9744 17.3354 27.645 17.2674 27.3979 17.1313C27.1509 16.9953 26.9289 16.8091 26.7319 16.5728H26.7212C26.7284 16.6802 26.7319 16.7894 26.7319 16.9004V19.1509C26.7319 19.312 26.6514 19.3926 26.4902 19.3926H26.0283ZM26.7319 15.042C26.7319 15.5791 26.859 15.9801 27.1133 16.2451C27.3711 16.5065 27.6934 16.6372 28.0801 16.6372C28.6243 16.6372 29.0093 16.4331 29.2349 16.0249C29.464 15.6167 29.5786 15.0832 29.5786 14.4243C29.5786 13.7655 29.464 13.2319 29.2349 12.8237C29.0093 12.4155 28.6243 12.2114 28.0801 12.2114C27.6934 12.2114 27.3711 12.3439 27.1133 12.6089C26.859 12.8703 26.7319 13.2695 26.7319 13.8066V15.042Z" fill="#4481F3"/>
<path d="M39.9238 27.6768C39.9238 25.2061 40.5505 23.2438 41.8037 21.79C43.057 20.3363 44.8652 19.6094 47.2285 19.6094C48.5892 19.6094 49.7422 19.8206 50.6875 20.2432C51.6328 20.6657 52.2988 21.278 52.6855 22.0801C52.9434 22.61 52.9004 22.9681 52.5566 23.1543L51.2676 23.8418C50.8164 24.0853 50.444 23.9492 50.1504 23.4336C49.9642 23.1042 49.6169 22.807 49.1084 22.542C48.6071 22.277 48.0163 22.1445 47.3359 22.1445C45.832 22.1445 44.7793 22.6208 44.1777 23.5732C43.5762 24.5186 43.2754 25.8864 43.2754 27.6768C43.2754 29.4671 43.5762 30.8385 44.1777 31.791C44.7793 32.7363 45.832 33.209 47.3359 33.209C48.1452 33.209 48.8255 33.0264 49.377 32.6611C49.9355 32.2959 50.3223 31.9486 50.5371 31.6191C50.888 31.082 51.2604 30.946 51.6543 31.2109L52.9434 32.0703C53.2943 32.3066 53.3301 32.6647 53.0508 33.1445C52.6354 33.8607 51.9229 34.473 50.9131 34.9814C49.9033 35.4899 48.6751 35.7441 47.2285 35.7441C44.901 35.7441 43.0999 35.0173 41.8252 33.5635C40.5576 32.1097 39.9238 30.1475 39.9238 27.6768ZM55.0918 32.3711C55.0918 30.9388 55.7757 29.9004 57.1436 29.2559C58.5114 28.6113 60.0726 28.2676 61.8271 28.2246V27.7949C61.8271 27.1361 61.6624 26.6706 61.333 26.3984C61.0036 26.1263 60.5452 25.9902 59.958 25.9902C59.5426 25.9902 59.1738 26.0511 58.8516 26.1729C58.5365 26.2874 58.2607 26.4235 58.0244 26.5811C57.7952 26.7314 57.5876 26.8854 57.4014 27.043C57.0719 27.3294 56.7998 27.3438 56.585 27.0859L55.6934 25.9902C55.4714 25.7181 55.5251 25.4388 55.8545 25.1523C56.1051 24.9303 56.3952 24.737 56.7246 24.5723C57.0612 24.4076 57.5052 24.2536 58.0566 24.1104C58.6081 23.96 59.3242 23.8848 60.2051 23.8848C61.6947 23.8848 62.8369 24.2285 63.6318 24.916C64.4339 25.6035 64.835 26.6169 64.835 27.9561V34.7344C64.835 35.1641 64.6201 35.3789 64.1904 35.3789H62.4287C62.042 35.3789 61.8486 35.1641 61.8486 34.7344V34.4121H61.8271C61.4046 34.8203 60.8962 35.1211 60.3018 35.3145C59.7145 35.5007 59.1738 35.5938 58.6797 35.5938C57.5052 35.5938 56.6136 35.3073 56.0049 34.7344C55.3962 34.1543 55.0918 33.3665 55.0918 32.3711ZM58.2715 32.3066C58.2715 32.5573 58.3216 32.7757 58.4219 32.9619C58.5221 33.141 58.6797 33.2734 58.8945 33.3594C59.1094 33.4453 59.3493 33.4883 59.6143 33.4883C59.9795 33.4883 60.334 33.4382 60.6777 33.3379C61.0215 33.2376 61.4046 33.0013 61.8271 32.6289V30.2979C60.624 30.4339 59.8184 30.6094 59.4102 30.8242C59.002 31.0391 58.7083 31.2611 58.5293 31.4902C58.3574 31.7194 58.2715 31.9915 58.2715 32.3066ZM67.542 34.627C67.1911 34.3763 67.0944 34.1077 67.252 33.8213L67.7998 32.8223C67.9932 32.4642 68.2939 32.4212 68.7021 32.6934C69.1104 32.9655 69.5902 33.166 70.1416 33.2949C70.7002 33.4238 71.2087 33.4883 71.667 33.4883C71.9893 33.4883 72.29 33.4561 72.5693 33.3916C72.8486 33.3271 73.085 33.2018 73.2783 33.0156C73.4717 32.8294 73.5684 32.5573 73.5684 32.1992C73.5684 31.9844 73.5111 31.8018 73.3965 31.6514C73.2819 31.501 73.1351 31.3864 72.9561 31.3076C72.777 31.2288 72.5872 31.1644 72.3867 31.1143C72.1217 31.0498 71.7386 30.9424 71.2373 30.792C70.7432 30.6416 70.2669 30.4661 69.8086 30.2656C69.429 30.1009 69.0566 29.8717 68.6914 29.5781C68.3333 29.2773 68.0684 28.9443 67.8965 28.5791C67.7318 28.2139 67.6494 27.7627 67.6494 27.2256C67.6494 26.5023 67.8571 25.8685 68.2725 25.3242C68.695 24.7799 69.2393 24.404 69.9053 24.1963C70.5713 23.9886 71.402 23.8848 72.3975 23.8848C73.0706 23.8848 73.7259 23.9814 74.3633 24.1748C75.0007 24.3682 75.4554 24.5508 75.7275 24.7227C76.1572 24.9948 76.2646 25.2848 76.0498 25.5928L75.3945 26.5488C75.194 26.8353 74.8717 26.8568 74.4277 26.6133C74.0911 26.4271 73.7581 26.2767 73.4287 26.1621C73.1064 26.0475 72.7448 25.9902 72.3438 25.9902C72.0716 25.9902 71.8102 26.0189 71.5596 26.0762C71.3089 26.1335 71.0941 26.2409 70.915 26.3984C70.7432 26.556 70.6572 26.7637 70.6572 27.0215C70.6572 27.2936 70.736 27.5085 70.8936 27.666C71.0583 27.8164 71.2445 27.9274 71.4521 27.999C71.667 28.0706 71.8711 28.1387 72.0645 28.2031C72.4655 28.332 72.8701 28.4574 73.2783 28.5791C73.6865 28.6937 74.1019 28.8333 74.5244 28.998C74.8896 29.1413 75.2441 29.3454 75.5879 29.6104C75.9316 29.8753 76.1823 30.2119 76.3398 30.6201C76.4974 31.0283 76.5762 31.4938 76.5762 32.0166C76.5762 32.7113 76.3685 33.3558 75.9531 33.9502C75.5378 34.5446 74.9899 34.9671 74.3096 35.2178C73.6292 35.4684 72.8379 35.5938 71.9355 35.5938C70.9258 35.5938 70.0664 35.5221 69.3574 35.3789C68.6484 35.2357 68.0433 34.985 67.542 34.627ZM79.2188 35.3789C78.7891 35.3789 78.5742 35.1641 78.5742 34.7344V20.168C78.5742 19.7383 78.7891 19.5234 79.2188 19.5234H80.9375C81.3672 19.5234 81.582 19.7383 81.582 20.168V24.5078C81.582 24.7943 81.5677 25.0807 81.5391 25.3672H81.6035C81.9329 24.8014 82.3519 24.4147 82.8604 24.207C83.3688 23.9922 83.9811 23.8848 84.6973 23.8848C85.8145 23.8848 86.7383 24.2357 87.4688 24.9375C88.1992 25.6393 88.5645 26.9212 88.5645 28.7832V34.7344C88.5645 35.1641 88.3496 35.3789 87.9199 35.3789H86.2012C85.7715 35.3789 85.5566 35.1641 85.5566 34.7344V29.5566C85.5566 27.9954 85.4492 27.0107 85.2344 26.6025C85.0195 26.1943 84.5576 25.9902 83.8486 25.9902C83.0967 25.9902 82.5309 26.2839 82.1514 26.8711C81.7718 27.4512 81.582 28.6615 81.582 30.502V34.7344C81.582 35.1641 81.3672 35.3789 80.9375 35.3789H79.2188ZM92.1094 35.3789C91.6797 35.3789 91.4648 35.1641 91.4648 34.7344V20.168C91.4648 19.7383 91.6797 19.5234 92.1094 19.5234H93.8281C94.2578 19.5234 94.4727 19.7383 94.4727 20.168V24.5078C94.4727 24.7943 94.4583 25.0807 94.4297 25.3672H94.4727C94.8451 24.7513 95.2604 24.3503 95.7188 24.1641C96.1771 23.9779 96.7285 23.8848 97.373 23.8848C99.056 23.8848 100.238 24.4684 100.918 25.6357C101.605 26.7959 101.949 28.1637 101.949 29.7393C101.949 31.3148 101.605 32.6862 100.918 33.8535C100.238 35.0137 99.056 35.5938 97.373 35.5938C96.7285 35.5938 96.1771 35.5007 95.7188 35.3145C95.2604 35.1283 94.8451 34.7272 94.4727 34.1113H94.4297L94.3867 34.7344C94.3581 35.1641 94.1647 35.3789 93.8066 35.3789H92.1094ZM94.4727 30.2227C94.4727 31.1895 94.6624 31.9772 95.042 32.5859C95.4287 33.1875 95.8906 33.4883 96.4277 33.4883C97.3945 33.4883 98.0247 33.1517 98.3184 32.4785C98.6191 31.7982 98.7695 30.8851 98.7695 29.7393C98.7695 28.5934 98.6191 27.6839 98.3184 27.0107C98.0247 26.3304 97.3945 25.9902 96.4277 25.9902C95.8906 25.9902 95.4287 26.2946 95.042 26.9033C94.6624 27.5049 94.4727 28.2891 94.4727 29.2559V30.2227ZM103.668 32.3711C103.668 30.9388 104.352 29.9004 105.72 29.2559C107.088 28.6113 108.649 28.2676 110.403 28.2246V27.7949C110.403 27.1361 110.239 26.6706 109.909 26.3984C109.58 26.1263 109.121 25.9902 108.534 25.9902C108.119 25.9902 107.75 26.0511 107.428 26.1729C107.113 26.2874 106.837 26.4235 106.601 26.5811C106.371 26.7314 106.164 26.8854 105.978 27.043C105.648 27.3294 105.376 27.3438 105.161 27.0859L104.27 25.9902C104.048 25.7181 104.101 25.4388 104.431 25.1523C104.681 24.9303 104.971 24.737 105.301 24.5723C105.637 24.4076 106.081 24.2536 106.633 24.1104C107.184 23.96 107.9 23.8848 108.781 23.8848C110.271 23.8848 111.413 24.2285 112.208 24.916C113.01 25.6035 113.411 26.6169 113.411 27.9561V34.7344C113.411 35.1641 113.196 35.3789 112.767 35.3789H111.005C110.618 35.3789 110.425 35.1641 110.425 34.7344V34.4121H110.403C109.981 34.8203 109.472 35.1211 108.878 35.3145C108.291 35.5007 107.75 35.5938 107.256 35.5938C106.081 35.5938 105.19 35.3073 104.581 34.7344C103.972 34.1543 103.668 33.3665 103.668 32.3711ZM106.848 32.3066C106.848 32.5573 106.898 32.7757 106.998 32.9619C107.098 33.141 107.256 33.2734 107.471 33.3594C107.686 33.4453 107.925 33.4883 108.19 33.4883C108.556 33.4883 108.91 33.4382 109.254 33.3379C109.598 33.2376 109.981 33.0013 110.403 32.6289V30.2979C109.2 30.4339 108.395 30.6094 107.986 30.8242C107.578 31.0391 107.285 31.2611 107.105 31.4902C106.934 31.7194 106.848 31.9915 106.848 32.3066ZM115.742 29.7393C115.742 27.9131 116.201 26.4808 117.117 25.4424C118.034 24.404 119.441 23.8848 121.339 23.8848C122.449 23.8848 123.312 24.0316 123.928 24.3252C124.544 24.6188 125.038 25.0485 125.41 25.6143C125.632 25.9508 125.596 26.2158 125.303 26.4092L124.164 27.1611C123.842 27.376 123.559 27.2936 123.315 26.9141C123.194 26.7279 122.961 26.5273 122.617 26.3125C122.273 26.0977 121.847 25.9902 121.339 25.9902C120.53 25.9902 119.924 26.2767 119.523 26.8496C119.122 27.4154 118.922 28.3786 118.922 29.7393C118.922 31.0999 119.122 32.0667 119.523 32.6396C119.924 33.2054 120.53 33.4883 121.339 33.4883C121.919 33.4883 122.388 33.3665 122.746 33.123C123.104 32.8796 123.441 32.5645 123.756 32.1777C124.028 31.8483 124.314 31.8018 124.615 32.0381L125.614 32.8223C125.915 33.0586 125.933 33.3737 125.668 33.7676C125.389 34.1829 124.912 34.5911 124.239 34.9922C123.573 35.3932 122.606 35.5938 121.339 35.5938C119.441 35.5938 118.034 35.0745 117.117 34.0361C116.201 32.9977 115.742 31.5654 115.742 29.7393ZM128.654 35.3789C128.225 35.3789 128.01 35.1641 128.01 34.7344V20.168C128.01 19.7383 128.225 19.5234 128.654 19.5234H130.373C130.803 19.5234 131.018 19.7383 131.018 20.168V28.0635C131.018 28.3499 131.003 28.6364 130.975 28.9229H131.018L134.423 24.54C134.652 24.2464 134.931 24.0996 135.261 24.0996H137.022C137.681 24.0996 137.792 24.3646 137.355 24.8945L134.111 28.8154L137.871 34.584C138.215 35.1139 138.104 35.3789 137.538 35.3789H135.701C135.343 35.3789 135.049 35.1927 134.82 34.8203L132.382 30.8994L131.018 32.543V34.7344C131.018 35.1641 130.803 35.3789 130.373 35.3789H128.654Z" fill="white"/>
<path d="M40.5039 17C40.276 17 40.1621 16.8747 40.1621 16.624V7.57324C40.1621 7.32259 40.276 7.19727 40.5039 7.19727H41.1328C41.3607 7.19727 41.4746 7.32259 41.4746 7.57324V11.3398H46.2461V7.57324C46.2461 7.32259 46.36 7.19727 46.5879 7.19727H47.2168C47.4447 7.19727 47.5586 7.32259 47.5586 7.57324V16.624C47.5586 16.8747 47.4447 17 47.2168 17H46.5879C46.36 17 46.2461 16.8747 46.2461 16.624V12.4609H41.4746V16.624C41.4746 16.8747 41.3607 17 41.1328 17H40.5039ZM49.3018 15.0859C49.3018 14.2747 49.68 13.68 50.4365 13.3018C51.1976 12.9235 52.3324 12.7025 53.8408 12.6387V12.1738C53.8408 11.7454 53.7428 11.3763 53.5469 11.0664C53.3555 10.752 52.9727 10.5947 52.3984 10.5947C52.0339 10.5947 51.7422 10.6312 51.5234 10.7041C51.3047 10.7725 51.1042 10.8659 50.9219 10.9844C50.7441 11.0983 50.5732 11.2464 50.4092 11.4287C50.2861 11.5654 50.1699 11.5723 50.0605 11.4492L49.7051 11.0391C49.6048 10.9251 49.639 10.7884 49.8076 10.6289C50.0492 10.401 50.2839 10.2301 50.5117 10.1162C50.7396 10.0023 51.0221 9.90658 51.3594 9.8291C51.7012 9.74707 52.0475 9.70605 52.3984 9.70605C53.3509 9.70605 54.0299 9.95215 54.4355 10.4443C54.8411 10.932 55.0439 11.6019 55.0439 12.4541V16.6924C55.0439 16.8975 54.9414 17 54.7363 17H54.1211C53.9434 17 53.8545 16.8975 53.8545 16.6924V16.3574H53.8408C53.4808 16.64 53.1276 16.8382 52.7812 16.9521C52.4395 17.0615 52.0566 17.1162 51.6328 17.1162C50.8854 17.1162 50.3089 16.9385 49.9033 16.583C49.5023 16.223 49.3018 15.724 49.3018 15.0859ZM50.5459 15.1133C50.5459 15.3958 50.6051 15.6237 50.7236 15.7969C50.8421 15.9655 51.0062 16.0749 51.2158 16.125C51.4255 16.1706 51.6442 16.1934 51.8721 16.1934C52.223 16.1934 52.5557 16.1592 52.8701 16.0908C53.1846 16.0225 53.5081 15.8424 53.8408 15.5508V13.5342C52.9202 13.6025 52.264 13.6868 51.8721 13.7871C51.4801 13.8828 51.1611 14.0514 50.915 14.293C50.6689 14.5299 50.5459 14.8034 50.5459 15.1133ZM57.2998 19.7344C57.0947 19.7344 56.9922 19.6318 56.9922 19.4268V10.1299C56.9922 9.9248 57.0947 9.82227 57.2998 9.82227H57.874C58.0381 9.82227 58.127 9.9248 58.1406 10.1299L58.1816 10.6768H58.1953C58.446 10.376 58.7285 10.139 59.043 9.96582C59.3574 9.79264 59.7767 9.70605 60.3008 9.70605C61.2122 9.70605 61.9049 10.0798 62.3789 10.8271C62.8529 11.57 63.0898 12.4313 63.0898 13.4111C63.0898 14.391 62.8529 15.2546 62.3789 16.002C61.9049 16.7448 61.2122 17.1162 60.3008 17.1162C59.7767 17.1162 59.3574 17.0296 59.043 16.8564C58.7285 16.6833 58.446 16.4463 58.1953 16.1455H58.1816C58.1908 16.2822 58.1953 16.4212 58.1953 16.5625V19.4268C58.1953 19.6318 58.0928 19.7344 57.8877 19.7344H57.2998ZM58.1953 14.1973C58.1953 14.8809 58.3571 15.3913 58.6807 15.7285C59.0088 16.0612 59.4189 16.2275 59.9111 16.2275C60.6038 16.2275 61.0938 15.9678 61.3809 15.4482C61.6725 14.9287 61.8184 14.2497 61.8184 13.4111C61.8184 12.5726 61.6725 11.8936 61.3809 11.374C61.0938 10.8545 60.6038 10.5947 59.9111 10.5947C59.4189 10.5947 59.0088 10.7633 58.6807 11.1006C58.3571 11.4333 58.1953 11.9414 58.1953 12.625V14.1973ZM64.9561 19.7344C64.751 19.7344 64.6484 19.6318 64.6484 19.4268V10.1299C64.6484 9.9248 64.751 9.82227 64.9561 9.82227H65.5303C65.6943 9.82227 65.7832 9.9248 65.7969 10.1299L65.8379 10.6768H65.8516C66.1022 10.376 66.3848 10.139 66.6992 9.96582C67.0137 9.79264 67.4329 9.70605 67.957 9.70605C68.8685 9.70605 69.5612 10.0798 70.0352 10.8271C70.5091 11.57 70.7461 12.4313 70.7461 13.4111C70.7461 14.391 70.5091 15.2546 70.0352 16.002C69.5612 16.7448 68.8685 17.1162 67.957 17.1162C67.4329 17.1162 67.0137 17.0296 66.6992 16.8564C66.3848 16.6833 66.1022 16.4463 65.8516 16.1455H65.8379C65.847 16.2822 65.8516 16.4212 65.8516 16.5625V19.4268C65.8516 19.6318 65.749 19.7344 65.5439 19.7344H64.9561ZM65.8516 14.1973C65.8516 14.8809 66.0133 15.3913 66.3369 15.7285C66.665 16.0612 67.0752 16.2275 67.5674 16.2275C68.2601 16.2275 68.75 15.9678 69.0371 15.4482C69.3288 14.9287 69.4746 14.2497 69.4746 13.4111C69.4746 12.5726 69.3288 11.8936 69.0371 11.374C68.75 10.8545 68.2601 10.5947 67.5674 10.5947C67.0752 10.5947 66.665 10.7633 66.3369 11.1006C66.0133 11.4333 65.8516 11.9414 65.8516 12.625V14.1973ZM71.8057 10.1572C71.7236 9.93392 71.7852 9.82227 71.9902 9.82227H72.7354C72.8857 9.82227 72.9883 9.91113 73.043 10.0889L74.4785 14.6006C74.5195 14.7236 74.5811 14.9173 74.6631 15.1816C74.7497 15.4414 74.8112 15.6738 74.8477 15.8789H74.8613C74.8978 15.6738 74.9411 15.4893 74.9912 15.3252C75.0459 15.1566 75.1257 14.915 75.2305 14.6006L76.6797 10.0889C76.7389 9.91113 76.8415 9.82227 76.9873 9.82227H77.7324C77.9375 9.82227 77.999 9.93392 77.917 10.1572L75.6133 16.583C75.1803 17.7907 74.793 18.6361 74.4512 19.1191C74.1094 19.6068 73.599 19.8506 72.9199 19.8506C72.5645 19.8506 72.2819 19.7982 72.0723 19.6934C71.9766 19.6478 71.9447 19.5771 71.9766 19.4814L72.1543 18.9277C72.1862 18.832 72.2477 18.8047 72.3389 18.8457C72.5257 18.9232 72.7057 18.9619 72.8789 18.9619C73.1979 18.9619 73.4577 18.7887 73.6582 18.4424C73.8587 18.1006 74.0182 17.7565 74.1367 17.4102L74.2734 17.0068L71.8057 10.1572Z" fill="white"/>
<rect width="2.54371" height="18.1755" rx="1.27185" transform="matrix(0.70028 0.713868 -0.70028 0.713868 126.309 -6)" fill="#4481F3"/>
<rect width="2.16439" height="29.38" rx="1.0822" transform="matrix(0.70028 0.713868 -0.70028 0.713868 133.574 -2.6709)" fill="#4481F3"/>
<rect width="2.39031" height="29.3214" rx="1.19515" transform="matrix(0.70028 0.713868 -0.70028 0.713868 144.416 -2.83252)" fill="#4481F3"/>
<rect width="4.03899" height="18.1755" rx="2" transform="matrix(0.70028 0.713868 -0.70028 0.713868 155.261 5.16553)" fill="#4481F3"/>
<rect width="2.54371" height="18.1755" rx="1.27185" transform="matrix(0.70028 0.713868 -0.70028 0.713868 111.309 -9)" fill="white"/>
<rect width="2.16439" height="29.38" rx="1.0822" transform="matrix(0.70028 0.713868 -0.70028 0.713868 118.574 -5.6709)" fill="white"/>
<rect width="2.39031" height="29.3214" rx="1.19515" transform="matrix(0.70028 0.713868 -0.70028 0.713868 129.416 -5.83252)" fill="white"/>
</g>
<circle cx="160" cy="6" r="25" fill="url(#paint0_linear_111_112)"/>
</g>
<defs>
<linearGradient id="paint0_linear_111_112" x1="160" y1="-19" x2="160" y2="31" gradientUnits="userSpaceOnUse">
<stop stop-color="white"/>
<stop offset="1" stop-color="#4481F3"/>
</linearGradient>
<clipPath id="clip0_111_112">
<rect width="164" height="42" fill="white"/>
</clipPath>
<clipPath id="clip1_111_112">
<rect width="184" height="42" fill="white" transform="translate(-20)"/>
</clipPath>
</defs>
</svg>
