<svg width="164" height="42" viewBox="0 0 164 42" fill="none" xmlns="http://www.w3.org/2000/svg">
<path d="M0 0H164L144 42H0V0Z" fill="#F8B128"/>
<g clip-path="url(#clip0_112_205)">
<path d="M39.7969 17C39.4323 17 39.25 16.8047 39.25 16.4141V6.38281C39.25 5.99219 39.4323 5.79688 39.7969 5.79688H40.9844C41.349 5.79688 41.5312 5.99219 41.5312 6.38281V10.2031H45.7344V6.38281C45.7344 5.99219 45.9167 5.79688 46.2812 5.79688H47.4688C47.8333 5.79688 48.0156 5.99219 48.0156 6.38281V16.4141C48.0156 16.8047 47.8333 17 47.4688 17H46.2812C45.9167 17 45.7344 16.8047 45.7344 16.4141V12.1406H41.5312V16.4141C41.5312 16.8047 41.349 17 40.9844 17H39.7969ZM50.1641 17C49.7891 17 49.6667 16.8281 49.7969 16.4844L53.625 6.42969C53.7865 6.00781 54.0312 5.79688 54.3594 5.79688H55.4531C55.7812 5.79688 56.026 6.00781 56.1875 6.42969L60.0156 16.4844C60.1458 16.8281 60.0234 17 59.6484 17H58.4062C58.0625 17 57.8229 16.8203 57.6875 16.4609L56.8906 14.3594H52.9219L52.125 16.4609C51.9896 16.8203 51.75 17 51.4062 17H50.1641ZM53.6484 12.4219H56.1641L55.2031 9.9375C55.0885 9.64583 55.0182 9.4349 54.9922 9.30469C54.9714 9.16927 54.9479 8.97135 54.9219 8.71094H54.8906C54.8646 8.97135 54.8385 9.16927 54.8125 9.30469C54.7917 9.4349 54.724 9.64583 54.6094 9.9375L53.6484 12.4219ZM61.9531 17C61.5885 17 61.4062 16.8047 61.4062 16.4141V6.38281C61.4062 5.99219 61.5885 5.79688 61.9531 5.79688H64.875C66.75 5.79688 68.0495 6.10156 68.7734 6.71094C69.5026 7.32031 69.8672 8.1849 69.8672 9.30469C69.8672 10.4245 69.5026 11.2891 68.7734 11.8984C68.0495 12.5078 66.75 12.8125 64.875 12.8125H63.6875V16.4141C63.6875 16.8047 63.5052 17 63.1406 17H61.9531ZM63.6875 10.9062H64.8672C65.9089 10.9062 66.6172 10.7839 66.9922 10.5391C67.3672 10.2891 67.5547 9.8776 67.5547 9.30469C67.5547 8.73177 67.3672 8.32292 66.9922 8.07812C66.6172 7.82812 65.9089 7.70312 64.8672 7.70312H63.6875V10.9062ZM72.3281 17C71.9635 17 71.7812 16.8047 71.7812 16.4141V6.38281C71.7812 5.99219 71.9635 5.79688 72.3281 5.79688H75.25C77.125 5.79688 78.4245 6.10156 79.1484 6.71094C79.8776 7.32031 80.2422 8.1849 80.2422 9.30469C80.2422 10.4245 79.8776 11.2891 79.1484 11.8984C78.4245 12.5078 77.125 12.8125 75.25 12.8125H74.0625V16.4141C74.0625 16.8047 73.8802 17 73.5156 17H72.3281ZM74.0625 10.9062H75.2422C76.2839 10.9062 76.9922 10.7839 77.3672 10.5391C77.7422 10.2891 77.9297 9.8776 77.9297 9.30469C77.9297 8.73177 77.7422 8.32292 77.3672 8.07812C76.9922 7.82812 76.2839 7.70312 75.2422 7.70312H74.0625V10.9062ZM81.7031 6.46875C81.4375 6.02083 81.5599 5.79688 82.0703 5.79688H83.4375C83.7083 5.79688 83.9479 5.97656 84.1562 6.33594L85.8203 9.23438C85.8672 9.3125 86.0052 9.55729 86.2344 9.96875C86.4635 10.375 86.5964 10.7708 86.6328 11.1562H86.6641C86.7005 10.7708 86.8333 10.375 87.0625 9.96875C87.2917 9.55729 87.4297 9.3125 87.4766 9.23438L89.1406 6.33594C89.349 5.97656 89.5885 5.79688 89.8594 5.79688H91.2266C91.737 5.79688 91.8594 6.02083 91.5938 6.46875L87.7891 12.8984V16.5703C87.7891 16.8568 87.6068 17 87.2422 17H86.0547C85.6901 17 85.5078 16.8568 85.5078 16.5703V12.8984L81.7031 6.46875Z" fill="white"/>
<path d="M17.4846 37.105C25.5541 37.105 32.0957 30.5634 32.0957 22.4939C32.0957 14.4244 25.5541 7.88281 17.4846 7.88281C9.41514 7.88281 2.87354 14.4244 2.87354 22.4939C2.87354 30.5634 9.41514 37.105 17.4846 37.105Z" fill="white"/>
<path d="M17.6255 38C26.1731 38 33.1313 31.0418 33.1313 22.4941C33.1313 13.9464 26.1731 7 17.6255 7C9.0778 7 2.13135 13.9464 2.13135 22.4941C2.13135 31.0418 9.0778 38 17.6255 38ZM17.6255 8.76605C25.1959 8.76605 31.3653 14.9237 31.3653 22.4941C31.3653 30.0646 25.2077 36.234 17.6255 36.234C10.0432 36.234 3.88562 30.0763 3.88562 22.4941C3.89739 14.9237 10.055 8.76605 17.6255 8.76605Z" fill="#505050"/>
<path d="M8.90918 28C8.52181 28 8.32812 27.7925 8.32812 27.3774V16.7192C8.32812 16.3042 8.52181 16.0967 8.90918 16.0967H12.7524C14.4624 16.0967 15.7103 16.3623 16.4961 16.8936C17.2819 17.4193 17.6748 18.277 17.6748 19.4668C17.6748 20.3522 17.3566 21.0578 16.7202 21.5835C16.0838 22.1092 15.2759 22.4578 14.2964 22.6294V22.646C14.8276 22.8452 15.2288 23.1219 15.5 23.4761C15.7712 23.8302 15.9925 24.1401 16.1641 24.4058L17.9902 27.2861C18.2946 27.762 18.1895 28 17.6748 28H16.2305C15.9261 28 15.6771 27.8368 15.4834 27.5103L13.8066 24.7129C13.624 24.4141 13.2892 24.0876 12.8022 23.7334C12.3208 23.3737 11.8421 23.1938 11.3662 23.1938H10.752V27.3774C10.752 27.7925 10.5583 28 10.1709 28H8.90918ZM10.752 21.1353H12.2378C13.3446 21.1353 14.1304 21.0107 14.5952 20.7617C15.0656 20.5072 15.3008 20.106 15.3008 19.5581C15.3008 18.9604 15.0739 18.5731 14.6201 18.396C14.1719 18.2134 13.5106 18.1221 12.6362 18.1221H10.752V21.1353ZM20.4805 31.3203C20.1484 31.3203 19.9824 31.1543 19.9824 30.8223V19.7822C19.9824 19.4502 20.1484 19.2842 20.4805 19.2842H21.792C22.0687 19.2842 22.2181 19.4502 22.2402 19.7822L22.2734 20.2637H22.3066C22.5944 19.7878 22.9154 19.4779 23.2695 19.334C23.6237 19.1901 24.0498 19.1182 24.5479 19.1182C25.8483 19.1182 26.7614 19.5692 27.2871 20.4712C27.8184 21.3677 28.084 22.4246 28.084 23.6421C28.084 24.8595 27.8184 25.9193 27.2871 26.8213C26.7614 27.7178 25.8483 28.166 24.5479 28.166C24.0498 28.166 23.6237 28.0941 23.2695 27.9502C22.9154 27.8063 22.5944 27.4964 22.3066 27.0205H22.2734C22.2956 27.2419 22.3066 27.4632 22.3066 27.6846V30.8223C22.3066 31.1543 22.1406 31.3203 21.8086 31.3203H20.4805ZM22.3066 24.0156C22.3066 24.7627 22.4533 25.3714 22.7466 25.8418C23.0454 26.3066 23.4023 26.5391 23.8174 26.5391C24.5645 26.5391 25.0514 26.279 25.2783 25.7588C25.5107 25.2331 25.627 24.5275 25.627 23.6421C25.627 22.7567 25.5107 22.0539 25.2783 21.5337C25.0514 21.008 24.5645 20.7451 23.8174 20.7451C23.4023 20.7451 23.0454 20.9803 22.7466 21.4507C22.4533 21.9155 22.3066 22.5215 22.3066 23.2686V24.0156Z" fill="#F8B128"/>
<path d="M38.0669 28.6768C38.0669 26.2061 38.6935 24.2438 39.9468 22.79C41.2 21.3363 43.0083 20.6094 45.3716 20.6094C46.7323 20.6094 47.8853 20.8206 48.8306 21.2432C49.7759 21.6657 50.4419 22.278 50.8286 23.0801C51.0864 23.61 51.0435 23.9681 50.6997 24.1543L49.4106 24.8418C48.9595 25.0853 48.5871 24.9492 48.2935 24.4336C48.1073 24.1042 47.7599 23.807 47.2515 23.542C46.7502 23.277 46.1593 23.1445 45.479 23.1445C43.9751 23.1445 42.9224 23.6208 42.3208 24.5732C41.7192 25.5186 41.4185 26.8864 41.4185 28.6768C41.4185 30.4671 41.7192 31.8385 42.3208 32.791C42.9224 33.7363 43.9751 34.209 45.479 34.209C46.2882 34.209 46.9686 34.0264 47.52 33.6611C48.0786 33.2959 48.4653 32.9486 48.6802 32.6191C49.0311 32.082 49.4035 31.946 49.7974 32.2109L51.0864 33.0703C51.4373 33.3066 51.4731 33.6647 51.1938 34.1445C50.7785 34.8607 50.0659 35.473 49.0562 35.9814C48.0464 36.4899 46.8182 36.7441 45.3716 36.7441C43.0441 36.7441 41.243 36.0173 39.9683 34.5635C38.7007 33.1097 38.0669 31.1475 38.0669 28.6768ZM53.2349 33.3711C53.2349 31.9388 53.9188 30.9004 55.2866 30.2559C56.6545 29.6113 58.2157 29.2676 59.9702 29.2246V28.7949C59.9702 28.1361 59.8055 27.6706 59.4761 27.3984C59.1466 27.1263 58.6883 26.9902 58.1011 26.9902C57.6857 26.9902 57.3169 27.0511 56.9946 27.1729C56.6795 27.2874 56.4038 27.4235 56.1675 27.5811C55.9383 27.7314 55.7306 27.8854 55.5444 28.043C55.215 28.3294 54.9429 28.3438 54.728 28.0859L53.8364 26.9902C53.6144 26.7181 53.6681 26.4388 53.9976 26.1523C54.2482 25.9303 54.5382 25.737 54.8677 25.5723C55.2043 25.4076 55.6483 25.2536 56.1997 25.1104C56.7511 24.96 57.4673 24.8848 58.3481 24.8848C59.8377 24.8848 60.98 25.2285 61.7749 25.916C62.577 26.6035 62.978 27.6169 62.978 28.9561V35.7344C62.978 36.1641 62.7632 36.3789 62.3335 36.3789H60.5718C60.1851 36.3789 59.9917 36.1641 59.9917 35.7344V35.4121H59.9702C59.5477 35.8203 59.0392 36.1211 58.4448 36.3145C57.8576 36.5007 57.3169 36.5938 56.8228 36.5938C55.6483 36.5938 54.7567 36.3073 54.1479 35.7344C53.5392 35.1543 53.2349 34.3665 53.2349 33.3711ZM56.4146 33.3066C56.4146 33.5573 56.4647 33.7757 56.5649 33.9619C56.6652 34.141 56.8228 34.2734 57.0376 34.3594C57.2524 34.4453 57.4924 34.4883 57.7573 34.4883C58.1226 34.4883 58.4771 34.4382 58.8208 34.3379C59.1646 34.2376 59.5477 34.0013 59.9702 33.6289V31.2979C58.7671 31.4339 57.9614 31.6094 57.5532 31.8242C57.145 32.0391 56.8514 32.2611 56.6724 32.4902C56.5005 32.7194 56.4146 32.9915 56.4146 33.3066ZM65.6851 35.627C65.3341 35.3763 65.2375 35.1077 65.395 34.8213L65.9429 33.8223C66.1362 33.4642 66.437 33.4212 66.8452 33.6934C67.2534 33.9655 67.7332 34.166 68.2847 34.2949C68.8433 34.4238 69.3517 34.4883 69.8101 34.4883C70.1323 34.4883 70.4331 34.4561 70.7124 34.3916C70.9917 34.3271 71.228 34.2018 71.4214 34.0156C71.6147 33.8294 71.7114 33.5573 71.7114 33.1992C71.7114 32.9844 71.6541 32.8018 71.5396 32.6514C71.425 32.501 71.2782 32.3864 71.0991 32.3076C70.9201 32.2288 70.7303 32.1644 70.5298 32.1143C70.2648 32.0498 69.8817 31.9424 69.3804 31.792C68.8862 31.6416 68.41 31.4661 67.9517 31.2656C67.5721 31.1009 67.1997 30.8717 66.8345 30.5781C66.4764 30.2773 66.2114 29.9443 66.0396 29.5791C65.8748 29.2139 65.7925 28.7627 65.7925 28.2256C65.7925 27.5023 66.0002 26.8685 66.4155 26.3242C66.8381 25.7799 67.3823 25.404 68.0483 25.1963C68.7144 24.9886 69.5451 24.8848 70.5405 24.8848C71.2137 24.8848 71.869 24.9814 72.5063 25.1748C73.1437 25.3682 73.5985 25.5508 73.8706 25.7227C74.3003 25.9948 74.4077 26.2848 74.1929 26.5928L73.5376 27.5488C73.3371 27.8353 73.0148 27.8568 72.5708 27.6133C72.2342 27.4271 71.9012 27.2767 71.5718 27.1621C71.2495 27.0475 70.8879 26.9902 70.4868 26.9902C70.2147 26.9902 69.9533 27.0189 69.7026 27.0762C69.452 27.1335 69.2371 27.2409 69.0581 27.3984C68.8862 27.556 68.8003 27.7637 68.8003 28.0215C68.8003 28.2936 68.8791 28.5085 69.0366 28.666C69.2013 28.8164 69.3875 28.9274 69.5952 28.999C69.8101 29.0706 70.0142 29.1387 70.2075 29.2031C70.6086 29.332 71.0132 29.4574 71.4214 29.5791C71.8296 29.6937 72.245 29.8333 72.6675 29.998C73.0327 30.1413 73.3872 30.3454 73.731 30.6104C74.0747 30.8753 74.3254 31.2119 74.4829 31.6201C74.6405 32.0283 74.7192 32.4938 74.7192 33.0166C74.7192 33.7113 74.5116 34.3558 74.0962 34.9502C73.6808 35.5446 73.133 35.9671 72.4526 36.2178C71.7723 36.4684 70.981 36.5938 70.0786 36.5938C69.0688 36.5938 68.2095 36.5221 67.5005 36.3789C66.7915 36.2357 66.1864 35.985 65.6851 35.627ZM77.3618 36.3789C76.9321 36.3789 76.7173 36.1641 76.7173 35.7344V21.168C76.7173 20.7383 76.9321 20.5234 77.3618 20.5234H79.0806C79.5103 20.5234 79.7251 20.7383 79.7251 21.168V25.5078C79.7251 25.7943 79.7108 26.0807 79.6821 26.3672H79.7466C80.076 25.8014 80.495 25.4147 81.0034 25.207C81.5119 24.9922 82.1242 24.8848 82.8403 24.8848C83.9575 24.8848 84.8813 25.2357 85.6118 25.9375C86.3423 26.6393 86.7075 27.9212 86.7075 29.7832V35.7344C86.7075 36.1641 86.4927 36.3789 86.063 36.3789H84.3442C83.9146 36.3789 83.6997 36.1641 83.6997 35.7344V30.5566C83.6997 28.9954 83.5923 28.0107 83.3774 27.6025C83.1626 27.1943 82.7007 26.9902 81.9917 26.9902C81.2397 26.9902 80.674 27.2839 80.2944 27.8711C79.9149 28.4512 79.7251 29.6615 79.7251 31.502V35.7344C79.7251 36.1641 79.5103 36.3789 79.0806 36.3789H77.3618ZM90.2524 36.3789C89.8228 36.3789 89.6079 36.1641 89.6079 35.7344V21.168C89.6079 20.7383 89.8228 20.5234 90.2524 20.5234H91.9712C92.4009 20.5234 92.6157 20.7383 92.6157 21.168V25.5078C92.6157 25.7943 92.6014 26.0807 92.5728 26.3672H92.6157C92.9881 25.7513 93.4035 25.3503 93.8618 25.1641C94.3201 24.9779 94.8716 24.8848 95.5161 24.8848C97.1991 24.8848 98.3807 25.4684 99.061 26.6357C99.7485 27.7959 100.092 29.1637 100.092 30.7393C100.092 32.3148 99.7485 33.6862 99.061 34.8535C98.3807 36.0137 97.1991 36.5938 95.5161 36.5938C94.8716 36.5938 94.3201 36.5007 93.8618 36.3145C93.4035 36.1283 92.9881 35.7272 92.6157 35.1113H92.5728L92.5298 35.7344C92.5011 36.1641 92.3078 36.3789 91.9497 36.3789H90.2524ZM92.6157 31.2227C92.6157 32.1895 92.8055 32.9772 93.1851 33.5859C93.5718 34.1875 94.0337 34.4883 94.5708 34.4883C95.5376 34.4883 96.1678 34.1517 96.4614 33.4785C96.7622 32.7982 96.9126 31.8851 96.9126 30.7393C96.9126 29.5934 96.7622 28.6839 96.4614 28.0107C96.1678 27.3304 95.5376 26.9902 94.5708 26.9902C94.0337 26.9902 93.5718 27.2946 93.1851 27.9033C92.8055 28.5049 92.6157 29.2891 92.6157 30.2559V31.2227ZM101.811 33.3711C101.811 31.9388 102.495 30.9004 103.863 30.2559C105.231 29.6113 106.792 29.2676 108.546 29.2246V28.7949C108.546 28.1361 108.382 27.6706 108.052 27.3984C107.723 27.1263 107.264 26.9902 106.677 26.9902C106.262 26.9902 105.893 27.0511 105.571 27.1729C105.256 27.2874 104.98 27.4235 104.744 27.5811C104.514 27.7314 104.307 27.8854 104.121 28.043C103.791 28.3294 103.519 28.3438 103.304 28.0859L102.413 26.9902C102.191 26.7181 102.244 26.4388 102.574 26.1523C102.824 25.9303 103.114 25.737 103.444 25.5723C103.78 25.4076 104.224 25.2536 104.776 25.1104C105.327 24.96 106.043 24.8848 106.924 24.8848C108.414 24.8848 109.556 25.2285 110.351 25.916C111.153 26.6035 111.554 27.6169 111.554 28.9561V35.7344C111.554 36.1641 111.339 36.3789 110.91 36.3789H109.148C108.761 36.3789 108.568 36.1641 108.568 35.7344V35.4121H108.546C108.124 35.8203 107.615 36.1211 107.021 36.3145C106.434 36.5007 105.893 36.5938 105.399 36.5938C104.224 36.5938 103.333 36.3073 102.724 35.7344C102.115 35.1543 101.811 34.3665 101.811 33.3711ZM104.991 33.3066C104.991 33.5573 105.041 33.7757 105.141 33.9619C105.241 34.141 105.399 34.2734 105.614 34.3594C105.829 34.4453 106.069 34.4883 106.333 34.4883C106.699 34.4883 107.053 34.4382 107.397 34.3379C107.741 34.2376 108.124 34.0013 108.546 33.6289V31.2979C107.343 31.4339 106.538 31.6094 106.129 31.8242C105.721 32.0391 105.428 32.2611 105.249 32.4902C105.077 32.7194 104.991 32.9915 104.991 33.3066ZM113.885 30.7393C113.885 28.9131 114.344 27.4808 115.26 26.4424C116.177 25.404 117.584 24.8848 119.482 24.8848C120.592 24.8848 121.455 25.0316 122.071 25.3252C122.687 25.6188 123.181 26.0485 123.553 26.6143C123.775 26.9508 123.739 27.2158 123.446 27.4092L122.307 28.1611C121.985 28.376 121.702 28.2936 121.458 27.9141C121.337 27.7279 121.104 27.5273 120.76 27.3125C120.417 27.0977 119.99 26.9902 119.482 26.9902C118.673 26.9902 118.068 27.2767 117.667 27.8496C117.265 28.4154 117.065 29.3786 117.065 30.7393C117.065 32.0999 117.265 33.0667 117.667 33.6396C118.068 34.2054 118.673 34.4883 119.482 34.4883C120.062 34.4883 120.531 34.3665 120.889 34.123C121.247 33.8796 121.584 33.5645 121.899 33.1777C122.171 32.8483 122.458 32.8018 122.758 33.0381L123.757 33.8223C124.058 34.0586 124.076 34.3737 123.811 34.7676C123.532 35.1829 123.056 35.5911 122.382 35.9922C121.716 36.3932 120.75 36.5938 119.482 36.5938C117.584 36.5938 116.177 36.0745 115.26 35.0361C114.344 33.9977 113.885 32.5654 113.885 30.7393ZM126.797 36.3789C126.368 36.3789 126.153 36.1641 126.153 35.7344V21.168C126.153 20.7383 126.368 20.5234 126.797 20.5234H128.516C128.946 20.5234 129.161 20.7383 129.161 21.168V29.0635C129.161 29.3499 129.146 29.6364 129.118 29.9229H129.161L132.566 25.54C132.795 25.2464 133.074 25.0996 133.404 25.0996H135.166C135.824 25.0996 135.935 25.3646 135.499 25.8945L132.254 29.8154L136.014 35.584C136.358 36.1139 136.247 36.3789 135.681 36.3789H133.844C133.486 36.3789 133.193 36.1927 132.963 35.8203L130.525 31.8994L129.161 33.543V35.7344C129.161 36.1641 128.946 36.3789 128.516 36.3789H126.797Z" fill="white"/>
<rect width="2.54371" height="18.1755" rx="1.27185" transform="matrix(0.886621 0.462497 -0.445375 0.895344 138.438 -7.26953)" fill="white"/>
<rect width="2.16439" height="29.38" rx="1.0822" transform="matrix(0.886621 0.462497 -0.445375 0.895344 146.376 -6.34912)" fill="white"/>
<rect width="2.39031" height="29.3214" rx="1.19515" transform="matrix(0.886621 0.462497 -0.445375 0.895344 156.638 -9.85352)" fill="white"/>
</g>
<defs>
<clipPath id="clip0_112_205">
<rect width="164" height="42" fill="white"/>
</clipPath>
</defs>
</svg>
