<svg width="351" height="147" viewBox="0 0 351 147" fill="none" xmlns="http://www.w3.org/2000/svg">
<g clip-path="url(#clip0_509_21)">
<rect width="351" height="147" fill="#FF9922"/>
<circle cx="318" cy="17" r="99" fill="url(#paint0_linear_509_21)"/>
<circle cx="39" cy="164" r="99" fill="url(#paint1_linear_509_21)"/>
<rect y="-9.54541" width="8.90914" height="39.3036" rx="4.45457" transform="rotate(-30 0 -9.54541)" fill="white"/>
<rect x="14.9106" y="-8.79993" width="8.90914" height="43.5577" rx="4.45457" transform="rotate(-30 14.9106 -8.79993)" fill="white"/>
<rect x="29.4536" y="-7.81744" width="8.90914" height="47.6618" rx="4.45457" transform="rotate(-30 29.4536 -7.81744)" fill="white"/>
<path d="M151.968 92.64C150.517 92.64 149.216 92.448 148.064 92.064C146.912 91.7227 145.909 91.104 145.056 90.208C144.203 89.312 143.499 88.0533 142.944 86.432C142.389 84.8107 141.963 82.7413 141.664 80.224C141.408 77.7067 141.28 74.656 141.28 71.072C141.28 66.8907 141.536 63.3493 142.048 60.448C142.56 57.5467 143.243 55.2 144.096 53.408C144.992 51.5733 145.995 50.1653 147.104 49.184C148.213 48.16 149.365 47.4773 150.56 47.136C151.755 46.752 152.928 46.56 154.08 46.56C155.915 46.56 157.259 46.752 158.112 47.136C158.965 47.4773 159.52 47.9467 159.776 48.544C160.032 49.0987 160.16 49.696 160.16 50.336C160.16 51.1893 160.053 52 159.84 52.768C159.627 53.4933 159.392 54.1333 159.136 54.688C158.88 54.4747 158.581 54.304 158.24 54.176C157.899 54.0053 157.515 53.8773 157.088 53.792C156.704 53.664 156.277 53.6 155.808 53.6C155.083 53.6 154.379 53.7493 153.696 54.048C153.013 54.304 152.373 54.7947 151.776 55.52C151.179 56.2453 150.667 57.248 150.24 58.528C149.813 59.808 149.472 61.4293 149.216 63.392C148.96 65.3547 148.832 67.7227 148.832 70.496C148.832 73.2693 148.917 75.5733 149.088 77.408C149.301 79.2427 149.6 80.6933 149.984 81.76C150.368 82.784 150.88 83.5307 151.52 84C152.16 84.4267 152.928 84.64 153.824 84.64C154.805 84.64 155.723 84.5547 156.576 84.384C157.472 84.2133 158.219 83.9787 158.816 83.68C159.072 84.2347 159.285 84.896 159.456 85.664C159.669 86.3893 159.776 87.136 159.776 87.904C159.776 88.8853 159.456 89.7387 158.816 90.464C158.219 91.1893 157.323 91.7227 156.128 92.064C154.976 92.448 153.589 92.64 151.968 92.64ZM166.235 92.128C165.765 92.128 165.104 92.1067 164.251 92.064C163.397 92.0213 162.544 91.9573 161.691 91.872L172.379 48.416C172.549 47.52 173.509 47.072 175.259 47.072C175.856 47.072 176.453 47.0933 177.051 47.136C177.691 47.1787 178.224 47.2427 178.651 47.328L189.339 90.848C189.424 91.2747 189.275 91.5947 188.891 91.808C188.507 92.0213 187.589 92.128 186.139 92.128C185.669 92.128 185.093 92.1067 184.411 92.064C183.728 92.064 182.917 92.0427 181.979 92L177.307 69.408C177.093 68.256 176.88 67.0187 176.667 65.696C176.453 64.3307 176.261 62.9227 176.091 61.472C175.92 60.0213 175.771 58.6347 175.643 57.312C175.515 58.6347 175.344 60.0213 175.131 61.472C174.96 62.9227 174.768 64.3307 174.555 65.696C174.384 67.0187 174.171 68.256 173.915 69.408L169.499 90.784C169.413 91.2107 169.2 91.552 168.859 91.808C168.56 92.0213 167.685 92.128 166.235 92.128ZM168.987 81.824V75.36H183.451V81.824H168.987ZM198.283 92.64C195.424 92.64 193.312 92.2133 191.947 91.36C190.582 90.464 189.899 89.4613 189.899 88.352C189.899 87.6267 190.027 86.7947 190.283 85.856C190.539 84.8747 190.944 83.9787 191.499 83.168C192.182 83.7653 193.056 84.2773 194.123 84.704C195.19 85.088 196.299 85.28 197.451 85.28C199.2 85.28 200.416 84.832 201.099 83.936C201.782 83.04 202.123 81.8453 202.123 80.352C202.123 79.2427 201.91 78.1973 201.483 77.216C201.099 76.2347 200.352 75.0187 199.243 73.568L193.419 65.76C191.968 63.7973 191.008 62.0907 190.539 60.64C190.07 59.1893 189.835 57.76 189.835 56.352C189.835 53.4507 190.795 51.104 192.715 49.312C194.635 47.4773 197.472 46.56 201.227 46.56C204.47 46.56 206.731 46.88 208.011 47.52C209.291 48.16 209.931 49.0347 209.931 50.144C209.931 50.7413 209.803 51.4027 209.547 52.128C209.291 52.8107 208.864 53.4933 208.267 54.176C207.926 53.92 207.222 53.6427 206.155 53.344C205.088 53.0453 203.936 52.896 202.699 52.896C201.12 52.896 199.883 53.1733 198.987 53.728C198.091 54.24 197.643 55.0507 197.643 56.16C197.643 57.1413 197.814 58.0587 198.155 58.912C198.539 59.7227 199.136 60.704 199.947 61.856L206.091 69.728C207.627 71.6907 208.651 73.4613 209.163 75.04C209.675 76.6187 209.931 78.3253 209.931 80.16C209.931 82.2933 209.59 84.32 208.907 86.24C208.267 88.1173 207.115 89.6533 205.451 90.848C203.787 92.0427 201.398 92.64 198.283 92.64ZM226.171 92V48.48C226.171 48.0533 226.256 47.7547 226.427 47.584C226.64 47.4133 227.238 47.3067 228.219 47.264C229.2 47.2213 230.907 47.2 233.339 47.2V90.72C233.339 91.1467 233.254 91.4453 233.083 91.616C232.912 91.7867 232.315 91.8933 231.291 91.936C230.31 91.9787 228.603 92 226.171 92ZM212.859 92V48.48C212.859 48.0533 212.944 47.7547 213.115 47.584C213.286 47.4133 213.862 47.3067 214.843 47.264C215.867 47.2213 217.595 47.2 220.027 47.2V90.72C220.027 91.1467 219.942 91.4453 219.771 91.616C219.6 91.7867 219.003 91.8933 217.979 91.936C216.998 91.9787 215.291 92 212.859 92ZM216.251 71.52V64.8H229.371L229.435 71.52H216.251ZM237.233 92V48.48C237.233 48.0533 237.361 47.7333 237.617 47.52C237.873 47.3067 238.342 47.2 239.025 47.2H245.297C246.662 47.2 247.985 47.3493 249.265 47.648C250.545 47.904 251.697 48.3947 252.721 49.12C253.745 49.8453 254.555 50.8693 255.153 52.192C255.793 53.472 256.113 55.1573 256.113 57.248C256.113 59.424 255.814 61.2587 255.217 62.752C254.619 64.2027 253.873 65.3333 252.977 66.144C252.081 66.912 251.163 67.36 250.225 67.488C250.993 67.5733 251.803 67.7653 252.657 68.064C253.51 68.32 254.299 68.7893 255.025 69.472C255.793 70.112 256.411 71.0293 256.881 72.224C257.35 73.376 257.585 74.8907 257.585 76.768C257.585 78.4747 257.435 80.096 257.137 81.632C256.881 83.1253 256.454 84.512 255.857 85.792C255.259 87.0293 254.491 88.1173 253.553 89.056C252.614 89.9947 251.483 90.72 250.161 91.232C248.881 91.744 247.366 92 245.617 92H237.233ZM244.529 85.792H245.809C246.321 85.792 246.769 85.6 247.153 85.216C247.537 84.832 247.857 84.2773 248.113 83.552C248.411 82.8267 248.625 81.952 248.753 80.928C248.923 79.904 249.009 78.7307 249.009 77.408C249.009 75.9573 248.945 74.8053 248.817 73.952C248.689 73.0987 248.497 72.4587 248.241 72.032C247.985 71.5627 247.665 71.264 247.281 71.136C246.897 70.9653 246.449 70.88 245.937 70.88H244.529V85.792ZM244.529 64.864H245.745C246.257 64.864 246.683 64.608 247.025 64.096C247.409 63.584 247.686 62.88 247.857 61.984C248.07 61.0453 248.177 59.9787 248.177 58.784C248.177 57.2907 248.07 56.16 247.857 55.392C247.686 54.624 247.43 54.112 247.089 53.856C246.747 53.6 246.385 53.472 246.001 53.472H244.529V64.864ZM263.047 92.128C262.578 92.128 261.916 92.1067 261.063 92.064C260.21 92.0213 259.356 91.9573 258.503 91.872L269.191 48.416C269.362 47.52 270.322 47.072 272.071 47.072C272.668 47.072 273.266 47.0933 273.863 47.136C274.503 47.1787 275.036 47.2427 275.463 47.328L286.151 90.848C286.236 91.2747 286.087 91.5947 285.703 91.808C285.319 92.0213 284.402 92.128 282.951 92.128C282.482 92.128 281.906 92.1067 281.223 92.064C280.54 92.064 279.73 92.0427 278.791 92L274.119 69.408C273.906 68.256 273.692 67.0187 273.479 65.696C273.266 64.3307 273.074 62.9227 272.903 61.472C272.732 60.0213 272.583 58.6347 272.455 57.312C272.327 58.6347 272.156 60.0213 271.943 61.472C271.772 62.9227 271.58 64.3307 271.367 65.696C271.196 67.0187 270.983 68.256 270.727 69.408L266.311 90.784C266.226 91.2107 266.012 91.552 265.671 91.808C265.372 92.0213 264.498 92.128 263.047 92.128ZM265.799 81.824V75.36H280.263V81.824H265.799ZM297.781 92.64C296.33 92.64 295.029 92.448 293.877 92.064C292.725 91.7227 291.722 91.104 290.869 90.208C290.015 89.312 289.311 88.0533 288.757 86.432C288.202 84.8107 287.775 82.7413 287.477 80.224C287.221 77.7067 287.093 74.656 287.093 71.072C287.093 66.8907 287.349 63.3493 287.861 60.448C288.373 57.5467 289.055 55.2 289.909 53.408C290.805 51.5733 291.807 50.1653 292.917 49.184C294.026 48.16 295.178 47.4773 296.373 47.136C297.567 46.752 298.741 46.56 299.893 46.56C301.727 46.56 303.071 46.752 303.925 47.136C304.778 47.4773 305.333 47.9467 305.589 48.544C305.845 49.0987 305.973 49.696 305.973 50.336C305.973 51.1893 305.866 52 305.653 52.768C305.439 53.4933 305.205 54.1333 304.949 54.688C304.693 54.4747 304.394 54.304 304.053 54.176C303.711 54.0053 303.327 53.8773 302.901 53.792C302.517 53.664 302.09 53.6 301.621 53.6C300.895 53.6 300.191 53.7493 299.509 54.048C298.826 54.304 298.186 54.7947 297.589 55.52C296.991 56.2453 296.479 57.248 296.053 58.528C295.626 59.808 295.285 61.4293 295.029 63.392C294.773 65.3547 294.645 67.7227 294.645 70.496C294.645 73.2693 294.73 75.5733 294.901 77.408C295.114 79.2427 295.413 80.6933 295.797 81.76C296.181 82.784 296.693 83.5307 297.333 84C297.973 84.4267 298.741 84.64 299.637 84.64C300.618 84.64 301.535 84.5547 302.389 84.384C303.285 84.2133 304.031 83.9787 304.628 83.68C304.885 84.2347 305.098 84.896 305.269 85.664C305.482 86.3893 305.589 87.136 305.589 87.904C305.589 88.8853 305.269 89.7387 304.628 90.464C304.031 91.1893 303.135 91.7227 301.941 92.064C300.789 92.448 299.402 92.64 297.781 92.64ZM326.977 92.128C326.166 92.128 325.334 92.1067 324.481 92.064C323.628 92.0213 322.753 91.9787 321.857 91.936C321.857 89.9733 321.793 88.0533 321.665 86.176C321.58 84.2987 321.388 82.5067 321.089 80.8C320.833 79.0933 320.406 77.536 319.809 76.128C319.254 74.6773 318.529 73.44 317.633 72.416C317.164 71.8613 316.609 71.4347 315.969 71.136C315.372 70.7947 314.774 70.6027 314.177 70.56V69.472L322.689 47.648C323.542 47.4347 324.374 47.3067 325.185 47.264C325.996 47.1787 326.7 47.136 327.297 47.136C329.814 47.136 330.838 47.7333 330.369 48.928L323.073 66.336C325.42 68.512 327.148 71.6907 328.257 75.872C329.409 80.0533 329.985 84.9813 329.985 90.656C329.985 91.2107 329.793 91.5947 329.409 91.808C329.068 92.0213 328.257 92.128 326.977 92.128ZM308.417 92V48.48C308.417 48.0533 308.524 47.7547 308.737 47.584C308.95 47.4133 309.548 47.3067 310.529 47.264C311.553 47.2213 313.281 47.2 315.713 47.2V90.72C315.713 91.1467 315.606 91.4453 315.393 91.616C315.222 91.7867 314.625 91.8933 313.601 91.936C312.577 91.9787 310.849 92 308.417 92Z" fill="white"/>
<path fill-rule="evenodd" clip-rule="evenodd" d="M96.3234 87.3333L85.3383 87.3333L85.3383 83.1863C85.3383 80.4803 83.8517 77.9943 81.4716 76.7183C79.0878 75.4423 76.1987 75.5817 73.9541 77.0813L51.2589 92.232C49.223 93.5923 48 95.8803 48 98.3333C48 100.786 49.223 103.074 51.2589 104.435L73.9541 119.585C76.1987 121.085 79.0878 121.224 81.4716 119.948C83.8517 118.672 85.3383 116.186 85.3383 113.484L85.3383 109.333L96.3234 109.333C102.387 109.333 107.308 114.261 107.308 120.333C107.308 122.357 108.949 124 110.97 124L125.617 124C127.638 124 129.279 122.357 129.279 120.333C129.279 102.121 114.511 87.3333 96.3234 87.3333V87.3333ZM67.0262 36L52.3794 36C50.3618 36 48.7177 37.6427 48.7177 39.6667C48.7177 57.879 63.4853 72.6667 81.6729 72.6667L92.658 72.6667L92.658 76.8137C92.658 79.5197 94.1447 82.0057 96.5284 83.2817C98.9085 84.5577 101.798 84.4183 104.046 82.9187L126.737 67.768C128.777 66.4077 130 64.1197 130 61.6667C130 59.2137 128.777 56.9257 126.737 55.5653L104.046 40.4147C101.798 38.915 98.9085 38.7757 96.5284 40.0517C94.1447 41.3277 92.6617 43.8137 92.658 46.516L92.658 50.6667L81.6729 50.6667C75.6128 50.6667 70.6879 45.7387 70.6879 39.6667C70.6879 37.9397 69.4978 36.4913 67.8903 36.1027C67.667 36.0367 67.363 36.0037 67.0262 36V36Z" fill="white"/>
<path d="M143 113H171" stroke="white" stroke-width="2" stroke-linecap="round" stroke-linejoin="round"/>
<path d="M143 113L147.308 107" stroke="white" stroke-width="2" stroke-linecap="round" stroke-linejoin="round"/>
<path d="M143 113L147.308 119" stroke="white" stroke-width="2" stroke-linecap="round" stroke-linejoin="round"/>
<path d="M173.096 122V105.656C173.096 105.496 173.128 105.392 173.192 105.344C173.256 105.28 173.456 105.24 173.792 105.224C174.128 105.208 174.712 105.2 175.544 105.2V121.544C175.544 121.704 175.512 121.816 175.448 121.88C175.384 121.928 175.176 121.96 174.824 121.976C174.488 121.992 173.912 122 173.096 122ZM167.84 122V105.656C167.84 105.496 167.872 105.392 167.936 105.344C168 105.28 168.2 105.24 168.536 105.224C168.872 105.208 169.456 105.2 170.288 105.2V121.544C170.288 121.704 170.256 121.816 170.192 121.88C170.144 121.928 169.944 121.96 169.592 121.976C169.256 121.992 168.672 122 167.84 122ZM169.016 114.176V111.872H174.176L174.2 114.176H169.016ZM177.983 122.048C177.839 122.048 177.615 122.04 177.311 122.024C177.023 122.008 176.735 121.984 176.447 121.952L180.551 105.608C180.599 105.304 180.919 105.152 181.511 105.152C181.719 105.152 181.927 105.16 182.135 105.176C182.343 105.192 182.519 105.208 182.663 105.224L186.767 121.592C186.799 121.736 186.751 121.848 186.623 121.928C186.495 122.008 186.183 122.048 185.687 122.048C185.527 122.048 185.327 122.04 185.087 122.024C184.847 122.024 184.567 122.016 184.247 122L182.327 113.216C182.247 112.752 182.159 112.256 182.063 111.728C181.967 111.2 181.879 110.672 181.799 110.144C181.735 109.6 181.687 109.104 181.655 108.656C181.607 109.104 181.543 109.6 181.463 110.144C181.383 110.672 181.303 111.2 181.223 111.728C181.143 112.256 181.047 112.752 180.935 113.216L179.111 121.568C179.079 121.728 179.007 121.848 178.895 121.928C178.783 122.008 178.479 122.048 177.983 122.048ZM179.087 118.04V115.832H184.607V118.04H179.087ZM188.436 115.4C188.164 115.4 188.012 115.36 187.98 115.28C187.948 115.184 187.932 115.016 187.932 114.776V105.68C187.932 105.664 187.932 105.584 187.932 105.44C187.948 105.28 188.076 105.2 188.316 105.2H190.428C191.436 105.2 192.276 105.352 192.948 105.656C193.636 105.944 194.148 106.44 194.484 107.144C194.836 107.848 195.012 108.824 195.012 110.072C195.012 111.128 194.884 112 194.628 112.688C194.388 113.376 194.052 113.92 193.62 114.32C193.188 114.72 192.7 115 192.156 115.16C191.628 115.32 191.076 115.4 190.5 115.4H188.436ZM187.668 122V105.656C187.668 105.496 187.692 105.384 187.74 105.32C187.804 105.24 187.932 105.2 188.124 105.2H189.66C189.9 105.2 190.036 105.28 190.068 105.44C190.1 105.584 190.116 105.656 190.116 105.656V121.544C190.116 121.704 190.076 121.816 189.996 121.88C189.932 121.928 189.732 121.96 189.396 121.976C189.06 121.992 188.484 122 187.668 122ZM190.116 113.144H190.788C191.108 113.144 191.372 113.056 191.58 112.88C191.804 112.688 191.972 112.352 192.084 111.872C192.212 111.376 192.276 110.68 192.276 109.784C192.276 109.256 192.228 108.808 192.132 108.44C192.052 108.072 191.916 107.8 191.724 107.624C191.532 107.432 191.268 107.336 190.932 107.336H190.116V113.144ZM196.896 115.4C196.625 115.4 196.473 115.36 196.441 115.28C196.409 115.184 196.393 115.016 196.393 114.776V105.68C196.393 105.664 196.393 105.584 196.393 105.44C196.409 105.28 196.537 105.2 196.777 105.2H198.889C199.897 105.2 200.737 105.352 201.409 105.656C202.097 105.944 202.609 106.44 202.945 107.144C203.297 107.848 203.473 108.824 203.473 110.072C203.473 111.128 203.345 112 203.089 112.688C202.849 113.376 202.513 113.92 202.081 114.32C201.649 114.72 201.161 115 200.617 115.16C200.089 115.32 199.537 115.4 198.961 115.4H196.896ZM196.129 122V105.656C196.129 105.496 196.153 105.384 196.201 105.32C196.265 105.24 196.393 105.2 196.585 105.2H198.121C198.361 105.2 198.497 105.28 198.529 105.44C198.561 105.584 198.577 105.656 198.577 105.656V121.544C198.577 121.704 198.537 121.816 198.457 121.88C198.393 121.928 198.193 121.96 197.857 121.976C197.521 121.992 196.945 122 196.129 122ZM198.577 113.144H199.249C199.569 113.144 199.833 113.056 200.041 112.88C200.265 112.688 200.433 112.352 200.545 111.872C200.673 111.376 200.737 110.68 200.737 109.784C200.737 109.256 200.689 108.808 200.593 108.44C200.513 108.072 200.377 107.8 200.185 107.624C199.993 107.432 199.729 107.336 199.393 107.336H198.577V113.144ZM208.957 116.648H207.517L203.917 105.584C203.869 105.44 203.877 105.344 203.941 105.296C204.021 105.248 204.261 105.224 204.661 105.224C205.077 105.208 205.757 105.2 206.701 105.2L207.493 108.392C207.573 108.712 207.653 109.096 207.733 109.544C207.829 109.976 207.917 110.424 207.997 110.888C208.093 111.352 208.165 111.784 208.213 112.184C208.277 112.568 208.317 112.88 208.333 113.12C208.365 112.88 208.405 112.568 208.453 112.184C208.517 111.784 208.589 111.352 208.669 110.888C208.749 110.424 208.837 109.968 208.933 109.52C209.029 109.072 209.117 108.688 209.197 108.368L209.845 105.632C209.893 105.488 209.957 105.392 210.037 105.344C210.133 105.28 210.357 105.24 210.709 105.224C211.061 105.208 211.653 105.2 212.485 105.2L208.957 116.648ZM207.013 122V113.408H209.461V121.544C209.461 121.704 209.429 121.816 209.365 121.88C209.301 121.928 209.101 121.96 208.765 121.976C208.429 121.992 207.845 122 207.013 122Z" fill="white"/>
</g>
<defs>
<linearGradient id="paint0_linear_509_21" x1="356.5" y1="-6.50001" x2="231.5" y2="129.5" gradientUnits="userSpaceOnUse">
<stop stop-color="#FFE3AD"/>
<stop offset="1" stop-color="#FFB72C"/>
</linearGradient>
<linearGradient id="paint1_linear_509_21" x1="77.5" y1="140.5" x2="-47.5" y2="276.5" gradientUnits="userSpaceOnUse">
<stop stop-color="#FFE3AD" stop-opacity="0.31"/>
<stop offset="1" stop-color="#FFB72C"/>
</linearGradient>
<clipPath id="clip0_509_21">
<rect width="351" height="147" fill="white"/>
</clipPath>
</defs>
</svg>
