<svg width="351" height="147" viewBox="0 0 351 147" fill="none" xmlns="http://www.w3.org/2000/svg">
<g clip-path="url(#clip0_509_23)">
<rect width="351" height="147" fill="#6399FD"/>
<circle cx="299.5" cy="18.5" r="108.5" fill="url(#paint0_linear_509_23)"/>
<circle cx="-2.5" cy="162.5" r="108.5" fill="url(#paint1_linear_509_23)"/>
<path d="M215.141 66.57C213.051 66.57 211.303 66.285 209.897 65.715C208.529 65.107 207.427 64.1 206.591 62.694C205.793 61.288 205.204 59.331 204.824 56.823C204.482 54.277 204.311 51.085 204.311 47.247C204.311 42.687 204.596 38.982 205.166 36.132C205.736 33.282 206.553 31.097 207.617 29.577C208.681 28.019 209.973 26.955 211.493 26.385C213.051 25.815 214.799 25.53 216.737 25.53C218.751 25.53 220.29 25.853 221.354 26.499C222.418 27.145 222.95 27.886 222.95 28.722C222.95 29.368 222.874 30.033 222.722 30.717C222.57 31.363 222.399 31.933 222.209 32.427C221.753 32.085 221.145 31.8 220.385 31.572C219.625 31.344 218.827 31.23 217.991 31.23C216.547 31.23 215.35 31.515 214.4 32.085C213.45 32.617 212.69 33.491 212.12 34.707C211.55 35.885 211.151 37.481 210.923 39.495C210.695 41.471 210.581 43.903 210.581 46.791C210.581 49.831 210.657 52.282 210.809 54.144C210.999 56.006 211.284 57.431 211.664 58.419C212.044 59.369 212.519 60.015 213.089 60.357C213.697 60.699 214.419 60.87 215.255 60.87C215.711 60.87 216.091 60.832 216.395 60.756C216.737 60.642 216.984 60.528 217.136 60.414C217.326 60.262 217.459 60.148 217.535 60.072V46.848H214.4V43.143C214.4 42.421 214.837 42.06 215.711 42.06H223.007L222.95 64.575C222.418 64.917 221.753 65.259 220.955 65.601C220.157 65.905 219.283 66.133 218.333 66.285C217.383 66.475 216.319 66.57 215.141 66.57ZM228.081 50.325C227.435 50.325 227.074 50.23 226.998 50.04C226.922 49.812 226.884 49.413 226.884 48.843V27.24C226.884 27.202 226.884 27.012 226.884 26.67C226.922 26.29 227.226 26.1 227.796 26.1H232.812C235.206 26.1 237.201 26.461 238.797 27.183C240.431 27.867 241.647 29.045 242.445 30.717C243.281 32.389 243.699 34.707 243.699 37.671C243.699 40.179 243.395 42.25 242.787 43.884C242.217 45.518 241.419 46.81 240.393 47.76C239.367 48.71 238.208 49.375 236.916 49.755C235.662 50.135 234.351 50.325 232.983 50.325H228.081ZM226.257 66V27.183C226.257 27.183 226.295 27.012 226.371 26.67C226.485 26.29 226.808 26.1 227.34 26.1H230.988C231.558 26.1 231.881 26.29 231.957 26.67C232.033 27.012 232.071 27.183 232.071 27.183V64.917C232.071 65.297 231.976 65.563 231.786 65.715C231.634 65.829 231.14 65.905 230.304 65.943C229.506 65.981 228.157 66 226.257 66ZM241.476 66.171C241.02 66.171 240.488 66.152 239.88 66.114C239.31 66.076 238.702 66.038 238.056 66C237.942 62.694 237.619 59.939 237.087 57.735C236.555 55.531 235.966 53.802 235.32 52.548C234.674 51.294 234.104 50.401 233.61 49.869C233.154 49.337 232.926 49.071 232.926 49.071C232.926 49.071 232.869 48.938 232.755 48.672C232.679 48.406 232.869 48.159 233.325 47.931L236.574 46.05C237.144 46.05 237.505 46.259 237.657 46.677C237.657 46.677 237.98 47 238.626 47.646C239.272 48.292 240.013 49.337 240.849 50.781C241.723 52.225 242.502 54.106 243.186 56.424C243.908 58.704 244.326 61.497 244.44 64.803C244.44 65.297 244.288 65.658 243.984 65.886C243.718 66.076 242.882 66.171 241.476 66.171ZM232.071 44.967H233.667C234.427 44.967 235.054 44.758 235.548 44.34C236.08 43.884 236.479 43.105 236.745 42.003C237.049 40.901 237.201 39.362 237.201 37.386C237.201 35.98 237.087 34.821 236.859 33.909C236.669 32.959 236.346 32.275 235.89 31.857C235.434 31.401 234.807 31.173 234.009 31.173H232.071V44.967ZM249.068 66.114C248.726 66.114 248.194 66.095 247.472 66.057C246.788 66.019 246.104 65.962 245.42 65.886L255.167 27.069C255.281 26.347 256.041 25.986 257.447 25.986C257.941 25.986 258.435 26.005 258.929 26.043C259.423 26.081 259.841 26.119 260.183 26.157L269.93 65.031C270.006 65.373 269.892 65.639 269.588 65.829C269.284 66.019 268.543 66.114 267.365 66.114C266.985 66.114 266.51 66.095 265.94 66.057C265.37 66.057 264.705 66.038 263.945 66L259.385 45.138C259.195 44.036 258.986 42.858 258.758 41.604C258.53 40.35 258.321 39.096 258.131 37.842C257.979 36.55 257.865 35.372 257.789 34.308C257.675 35.372 257.523 36.55 257.333 37.842C257.143 39.096 256.953 40.35 256.763 41.604C256.573 42.858 256.345 44.036 256.079 45.138L251.747 64.974C251.671 65.354 251.5 65.639 251.234 65.829C250.968 66.019 250.246 66.114 249.068 66.114ZM251.69 56.595V51.351H264.8V56.595H251.69ZM274.599 66V26.727C274.599 26.727 274.637 26.727 274.713 26.727C274.827 26.689 275.15 26.67 275.682 26.67H279.33C279.862 26.67 280.166 26.689 280.242 26.727C280.356 26.727 280.413 26.727 280.413 26.727V64.917C280.413 65.297 280.318 65.563 280.128 65.715C279.976 65.829 279.482 65.905 278.646 65.943C277.848 65.981 276.499 66 274.599 66ZM267.36 31.572V27.183C267.36 26.461 267.721 26.1 268.443 26.1H287.823V30.489C287.823 30.907 287.747 31.192 287.595 31.344C287.443 31.496 287.158 31.572 286.74 31.572H267.36ZM290.327 66V28.665C290.327 27.791 290.403 27.183 290.555 26.841C290.745 26.499 291.258 26.29 292.094 26.214C292.93 26.138 294.317 26.1 296.255 26.1V64.917C296.255 65.297 296.16 65.563 295.97 65.715C295.818 65.829 295.324 65.905 294.488 65.943C293.69 65.981 292.303 66 290.327 66ZM306.791 66.57C304.245 66.57 302.364 66.19 301.148 65.43C299.932 64.67 299.324 63.815 299.324 62.865C299.324 62.295 299.419 61.63 299.609 60.87C299.837 60.072 300.179 59.35 300.635 58.704C301.243 59.236 302.022 59.692 302.972 60.072C303.96 60.414 305.024 60.585 306.164 60.585C307.874 60.585 309.071 60.148 309.755 59.274C310.439 58.4 310.781 57.222 310.781 55.74C310.781 54.676 310.572 53.669 310.154 52.719C309.774 51.769 309.052 50.61 307.988 49.242L302.63 42.402C301.338 40.692 300.464 39.21 300.008 37.956C299.552 36.664 299.324 35.372 299.324 34.08C299.324 31.534 300.16 29.482 301.832 27.924C303.542 26.328 306.05 25.53 309.356 25.53C312.168 25.53 314.144 25.815 315.284 26.385C316.424 26.955 316.994 27.696 316.994 28.608C316.994 29.102 316.88 29.634 316.652 30.204C316.462 30.774 316.12 31.344 315.626 31.914C315.284 31.648 314.619 31.382 313.631 31.116C312.681 30.812 311.617 30.66 310.439 30.66C308.957 30.66 307.779 30.945 306.905 31.515C306.031 32.047 305.594 32.845 305.594 33.909C305.594 34.859 305.784 35.714 306.164 36.474C306.544 37.234 307.114 38.127 307.874 39.153L313.574 46.164C314.98 47.912 315.911 49.508 316.367 50.952C316.861 52.358 317.108 53.897 317.108 55.569C317.108 57.469 316.804 59.255 316.196 60.927C315.588 62.599 314.543 63.967 313.061 65.031C311.579 66.057 309.489 66.57 306.791 66.57ZM214.571 123.57C212.747 123.57 211.17 123.266 209.84 122.658C208.548 122.05 207.484 120.986 206.648 119.466C205.85 117.946 205.261 115.837 204.881 113.139C204.501 110.441 204.311 107.002 204.311 102.822C204.311 97.692 204.71 93.664 205.508 90.738C206.306 87.774 207.503 85.665 209.099 84.411C210.733 83.157 212.766 82.53 215.198 82.53C217.06 82.53 218.637 82.853 219.929 83.499C221.221 84.145 222.266 85.228 223.064 86.748C223.862 88.23 224.432 90.263 224.774 92.847C225.154 95.431 225.344 98.68 225.344 102.594C225.344 107.914 224.964 112.094 224.204 115.134C223.444 118.174 222.266 120.34 220.67 121.632C219.112 122.924 217.079 123.57 214.571 123.57ZM214.913 117.528C215.977 117.528 216.794 117.053 217.364 116.103C217.972 115.115 218.39 113.538 218.618 111.372C218.884 109.168 219.017 106.318 219.017 102.822C219.017 99.326 218.922 96.533 218.732 94.443C218.542 92.353 218.162 90.852 217.592 89.94C217.06 89.028 216.243 88.572 215.141 88.572C214.077 88.572 213.241 89.066 212.633 90.054C212.025 91.042 211.588 92.676 211.322 94.956C211.056 97.236 210.923 100.295 210.923 104.133C210.923 107.287 211.018 109.852 211.208 111.828C211.436 113.804 211.835 115.248 212.405 116.16C212.975 117.072 213.811 117.528 214.913 117.528ZM243.928 123L237.715 107.61C237.411 106.774 237.069 105.786 236.689 104.646C236.309 103.468 235.929 102.214 235.549 100.884C235.207 99.554 234.865 98.262 234.523 97.008C234.219 95.716 233.934 94.538 233.668 93.474C233.402 92.41 233.174 91.555 232.984 90.909C232.832 90.263 232.756 89.94 232.756 89.94L229.393 86.52L229.678 83.1H234.238L240.337 98.205C240.679 99.079 241.04 100.124 241.42 101.34C241.8 102.556 242.18 103.829 242.56 105.159C242.94 106.451 243.282 107.724 243.586 108.978C243.928 110.194 244.213 111.315 244.441 112.341C244.707 113.367 244.916 114.184 245.068 114.792C245.22 115.4 245.296 115.704 245.296 115.704L248.83 119.58L248.374 123H243.928ZM228.595 123V84.183C228.595 83.461 228.956 83.1 229.678 83.1L234.409 84.183L233.554 92.847C233.668 93.569 233.744 94.367 233.782 95.241C233.858 96.077 233.934 96.989 234.01 97.977C234.086 98.927 234.143 99.877 234.181 100.827C234.257 101.777 234.295 102.708 234.295 103.62C234.333 104.532 234.352 105.387 234.352 106.185C234.39 106.945 234.409 107.61 234.409 108.18V121.917C234.409 122.297 234.314 122.563 234.124 122.715C233.972 122.829 233.497 122.905 232.699 122.943C231.901 122.981 230.533 123 228.595 123ZM248.374 123L243.643 121.917L244.441 112.056C244.327 111.258 244.232 110.441 244.156 109.605C244.08 108.769 244.023 107.914 243.985 107.04C243.947 106.128 243.89 105.254 243.814 104.418C243.776 103.544 243.738 102.689 243.7 101.853C243.7 101.017 243.681 100.238 243.643 99.516C243.643 98.794 243.643 98.129 243.643 97.521V84.183C243.643 83.803 243.719 83.556 243.871 83.442C244.061 83.29 244.555 83.195 245.353 83.157C246.189 83.119 247.557 83.1 249.457 83.1V121.917C249.457 122.639 249.096 123 248.374 123ZM263.569 123.57C261.479 123.57 259.731 123.285 258.325 122.715C256.957 122.107 255.855 121.1 255.019 119.694C254.221 118.288 253.632 116.331 253.252 113.823C252.91 111.277 252.739 108.085 252.739 104.247C252.739 99.687 253.024 95.982 253.594 93.132C254.164 90.282 254.981 88.097 256.045 86.577C257.109 85.019 258.401 83.955 259.921 83.385C261.479 82.815 263.227 82.53 265.165 82.53C267.179 82.53 268.718 82.853 269.782 83.499C270.846 84.145 271.378 84.886 271.378 85.722C271.378 86.368 271.302 87.033 271.15 87.717C270.998 88.363 270.827 88.933 270.637 89.427C270.181 89.085 269.573 88.8 268.813 88.572C268.053 88.344 267.255 88.23 266.419 88.23C264.975 88.23 263.778 88.515 262.828 89.085C261.878 89.617 261.118 90.491 260.548 91.707C259.978 92.885 259.579 94.481 259.351 96.495C259.123 98.471 259.009 100.903 259.009 103.791C259.009 106.831 259.085 109.282 259.237 111.144C259.427 113.006 259.712 114.431 260.092 115.419C260.472 116.369 260.947 117.015 261.517 117.357C262.125 117.699 262.847 117.87 263.683 117.87C264.139 117.87 264.519 117.832 264.823 117.756C265.165 117.642 265.412 117.528 265.564 117.414C265.754 117.262 265.887 117.148 265.963 117.072V103.848H262.828V100.143C262.828 99.421 263.265 99.06 264.139 99.06H271.435L271.378 121.575C270.846 121.917 270.181 122.259 269.383 122.601C268.585 122.905 267.711 123.133 266.761 123.285C265.811 123.475 264.747 123.57 263.569 123.57ZM291.158 123.114C290.512 123.114 289.847 123.095 289.163 123.057C288.479 123.019 287.776 122.981 287.054 122.943C286.902 121.043 286.731 119.238 286.541 117.528C286.351 115.78 286.085 114.165 285.743 112.683C285.439 111.163 285.002 109.795 284.432 108.579C283.9 107.325 283.235 106.242 282.437 105.33C281.981 104.836 281.468 104.456 280.898 104.19C280.366 103.886 279.815 103.696 279.245 103.62V102.708L287.624 83.442C288.346 83.29 289.03 83.195 289.676 83.157C290.322 83.081 290.892 83.043 291.386 83.043C293.438 83.043 294.255 83.556 293.837 84.582L286.484 100.2C288.612 102.062 290.265 104.855 291.443 108.579C292.621 112.265 293.343 116.692 293.609 121.86C293.609 122.316 293.457 122.639 293.153 122.829C292.849 123.019 292.184 123.114 291.158 123.114ZM274.628 123V84.183C274.628 83.803 274.704 83.556 274.856 83.442C275.046 83.29 275.54 83.195 276.338 83.157C277.136 83.119 278.523 83.1 280.499 83.1V121.917C280.499 122.297 280.423 122.563 280.271 122.715C280.119 122.829 279.625 122.905 278.789 122.943C277.953 122.981 276.566 123 274.628 123ZM296.784 123V85.665C296.784 84.791 296.86 84.183 297.012 83.841C297.202 83.499 297.715 83.29 298.551 83.214C299.387 83.138 300.774 83.1 302.712 83.1V121.917C302.712 122.297 302.617 122.563 302.427 122.715C302.275 122.829 301.781 122.905 300.945 122.943C300.147 122.981 298.76 123 296.784 123ZM308.46 107.325C307.814 107.325 307.453 107.23 307.377 107.04C307.301 106.812 307.263 106.413 307.263 105.843V84.24C307.263 84.202 307.263 84.012 307.263 83.67C307.301 83.29 307.605 83.1 308.175 83.1H313.191C315.585 83.1 317.58 83.461 319.176 84.183C320.81 84.867 322.026 86.045 322.824 87.717C323.66 89.389 324.078 91.707 324.078 94.671C324.078 97.179 323.774 99.25 323.166 100.884C322.596 102.518 321.798 103.81 320.772 104.76C319.746 105.71 318.587 106.375 317.295 106.755C316.041 107.135 314.73 107.325 313.362 107.325H308.46ZM306.636 123V84.183C306.636 84.183 306.674 84.012 306.75 83.67C306.864 83.29 307.187 83.1 307.719 83.1H311.367C311.937 83.1 312.26 83.29 312.336 83.67C312.412 84.012 312.45 84.183 312.45 84.183V121.917C312.45 122.297 312.355 122.563 312.165 122.715C312.013 122.829 311.519 122.905 310.683 122.943C309.885 122.981 308.536 123 306.636 123ZM321.855 123.171C321.399 123.171 320.867 123.152 320.259 123.114C319.689 123.076 319.081 123.038 318.435 123C318.321 119.694 317.998 116.939 317.466 114.735C316.934 112.531 316.345 110.802 315.699 109.548C315.053 108.294 314.483 107.401 313.989 106.869C313.533 106.337 313.305 106.071 313.305 106.071C313.305 106.071 313.248 105.938 313.134 105.672C313.058 105.406 313.248 105.159 313.704 104.931L316.953 103.05C317.523 103.05 317.884 103.259 318.036 103.677C318.036 103.677 318.359 104 319.005 104.646C319.651 105.292 320.392 106.337 321.228 107.781C322.102 109.225 322.881 111.106 323.565 113.424C324.287 115.704 324.705 118.497 324.819 121.803C324.819 122.297 324.667 122.658 324.363 122.886C324.097 123.076 323.261 123.171 321.855 123.171ZM312.45 101.967H314.046C314.806 101.967 315.433 101.758 315.927 101.34C316.459 100.884 316.858 100.105 317.124 99.003C317.428 97.901 317.58 96.362 317.58 94.386C317.58 92.98 317.466 91.821 317.238 90.909C317.048 89.959 316.725 89.275 316.269 88.857C315.813 88.401 315.186 88.173 314.388 88.173H312.45V101.967Z" fill="white"/>
<path d="M180.454 78.8208L168.339 58.6364C167.357 56.9847 165.963 55.6162 164.293 54.6647C162.624 53.7132 160.736 53.2112 158.814 53.2078H141.344L144.577 38.4026C144.76 37.5042 144.741 36.5762 144.52 35.6862C144.3 34.7961 143.884 33.9663 143.303 33.2573C142.721 32.5483 141.989 31.9777 141.159 31.5873C140.33 31.1968 139.423 30.9962 138.506 31.0001H52.4143C50.9976 31.01 49.6272 31.5053 48.5316 32.4034C47.436 33.3015 46.6813 34.548 46.3935 35.9351L45.0857 41.9065C45.0501 42.0686 45.0467 42.236 45.0757 42.3993C45.1048 42.5627 45.1658 42.7187 45.2551 42.8584C45.3445 42.9982 45.4605 43.119 45.5966 43.2139C45.7326 43.3089 45.886 43.3761 46.048 43.4117C46.2101 43.4474 46.3775 43.4508 46.5408 43.4217C46.7042 43.3926 46.8602 43.3317 46.9999 43.2423C47.1397 43.1529 47.2605 43.0369 47.3554 42.9009C47.4504 42.7648 47.5176 42.6114 47.5532 42.4494L48.861 36.4533C49.0323 35.6291 49.4759 34.8864 50.1204 34.3448C50.7649 33.8033 51.5729 33.4943 52.4143 33.4676H138.506C139.058 33.4696 139.603 33.595 140.1 33.8347C140.597 34.0744 141.035 34.4223 141.38 34.8528C141.725 35.2834 141.97 35.7857 142.096 36.3231C142.222 36.8605 142.227 37.4192 142.109 37.9585L138.654 53.7754C138.577 53.8971 138.518 54.0303 138.482 54.1702L126.416 109.961H69.4156C69.3401 109.186 69.1998 108.418 68.9961 107.666V107.395C68.7954 106.69 68.5311 106.004 68.2065 105.347L67.9104 105.026C67.5758 104.391 67.1965 103.781 66.7753 103.2L66.5532 102.929C66.1226 102.362 65.6438 101.834 65.1221 101.349L64.8753 101.127C64.3478 100.642 63.778 100.204 63.1727 99.8195L62.9013 99.6468C62.2687 99.2691 61.6089 98.9392 60.9272 98.6598H60.6805C59.9684 98.3829 59.2336 98.1682 58.4844 98.0182H58.3117C56.6831 97.6892 55.0052 97.6892 53.3766 98.0182H53.2039C52.4547 98.1682 51.7199 98.3829 51.0078 98.6598H50.761C50.0794 98.9392 49.4195 99.2691 48.787 99.6468L48.5156 99.8195C47.9102 100.204 47.3404 100.642 46.813 101.127L46.5662 101.349C46.0445 101.834 45.5657 102.362 45.1351 102.929L44.913 103.2C44.4918 103.781 44.1125 104.391 43.7779 105.026L43.6299 105.322C43.3052 105.979 43.0409 106.665 42.8402 107.37V107.642C42.5851 108.397 42.3952 109.173 42.2727 109.961H32.8714L37.3377 96.7844C37.413 96.6272 37.4541 96.4558 37.4584 96.2815C37.4626 96.1072 37.4299 95.934 37.3623 95.7733C37.2947 95.6126 37.1939 95.468 37.0664 95.3491C36.9389 95.2302 36.7876 95.1397 36.6226 95.0835C36.4575 95.0273 36.2824 95.0067 36.1089 95.0231C35.9353 95.0395 35.7672 95.0926 35.6156 95.1787C35.464 95.2648 35.3324 95.382 35.2294 95.5227C35.1264 95.6634 35.0544 95.8243 35.0182 95.9948L31.9338 105.026H31.0208C29.9831 105.025 28.9716 105.351 28.1299 105.958C27.2883 106.565 26.6593 107.422 26.3325 108.407L25 112.429H42.2727C42.2727 116.028 43.7026 119.48 46.2477 122.025C48.7928 124.57 52.2448 126 55.8441 126C59.4435 126 62.8954 124.57 65.4406 122.025C67.9857 119.48 69.4156 116.028 69.4156 112.429H136.039C136.039 116.028 137.469 119.48 140.014 122.025C142.559 124.57 146.011 126 149.61 126C153.21 126 156.662 124.57 159.207 122.025C161.752 119.48 163.182 116.028 163.182 112.429H177.987L178.283 111.516C178.685 110.288 178.59 108.952 178.018 107.794C177.445 106.636 176.442 105.749 175.223 105.322L181.293 88.2221C181.856 86.6903 182.073 85.0529 181.928 83.4274C181.783 81.8019 181.28 80.2288 180.454 78.8208ZM55.8441 122.299C53.648 122.299 51.5012 121.647 49.6751 120.427C47.8491 119.207 46.4259 117.473 45.5855 115.444C44.7451 113.415 44.5252 111.182 44.9536 109.029C45.3821 106.875 46.4396 104.896 47.9925 103.343C49.5454 101.79 51.5239 100.733 53.6779 100.304C55.8318 99.8758 58.0644 100.096 60.0934 100.936C62.1224 101.777 63.8566 103.2 65.0767 105.026C66.2968 106.852 66.948 108.999 66.948 111.195C66.9415 114.138 65.7695 116.958 63.6886 119.039C61.6076 121.12 58.7871 122.292 55.8441 122.299ZM149.61 122.299C147.414 122.299 145.267 121.647 143.441 120.427C141.615 119.207 140.192 117.473 139.352 115.444C138.511 113.415 138.291 111.182 138.72 109.029C139.148 106.875 140.206 104.896 141.759 103.343C143.312 101.79 145.29 100.733 147.444 100.304C149.598 99.8758 151.831 100.096 153.86 100.936C155.889 101.777 157.623 103.2 158.843 105.026C160.063 106.852 160.714 108.999 160.714 111.195C160.708 114.138 159.536 116.958 157.455 119.039C155.374 121.12 152.553 122.292 149.61 122.299ZM178.974 87.3831L170.954 109.961H163.182C163.106 109.186 162.966 108.418 162.762 107.666V107.395C162.557 106.691 162.293 106.006 161.973 105.347L161.677 105.026C161.336 104.394 160.957 103.785 160.541 103.2L160.319 102.929C159.889 102.362 159.41 101.834 158.888 101.349L158.641 101.103C158.107 100.632 157.538 100.203 156.939 99.8195L156.667 99.6468C156.04 99.2595 155.38 98.9291 154.693 98.6598H154.447C153.735 98.3829 153 98.1682 152.251 98.0182H152.078C150.45 97.6858 148.771 97.6858 147.143 98.0182H146.97C146.221 98.1682 145.486 98.3829 144.774 98.6598H144.527C143.841 98.9291 143.18 99.2595 142.553 99.6468L142.282 99.8195C141.682 100.203 141.113 100.632 140.579 101.103L140.332 101.349C139.811 101.834 139.332 102.362 138.901 102.929L138.679 103.2C138.263 103.785 137.884 104.394 137.544 105.026L137.396 105.322C137.075 105.981 136.811 106.666 136.606 107.37V107.642C136.351 108.397 136.161 109.173 136.039 109.961H128.883L140.752 55.6754H158.765C160.259 55.6762 161.727 56.0656 163.025 56.8054C164.322 57.5452 165.406 58.6099 166.167 59.8948L178.209 80.0792C178.865 81.1657 179.274 82.3834 179.406 83.6458C179.539 84.9083 179.391 86.1843 178.974 87.3831Z" fill="white"/>
<path d="M161.973 63.7194C161.433 62.7753 160.654 61.9904 159.714 61.4444C158.773 60.8985 157.705 60.6107 156.618 60.6104H147.143C146.876 60.6104 146.616 60.6969 146.402 60.8571C146.189 61.0173 146.033 61.2424 145.958 61.4987L141.023 78.7714C140.975 78.9558 140.968 79.1485 141.002 79.3361C141.036 79.5236 141.111 79.7014 141.221 79.8571C141.334 80.0118 141.483 80.1372 141.655 80.223C141.826 80.3088 142.016 80.3526 142.208 80.3506H160.838C161.923 80.3553 162.99 80.0723 163.931 79.5305C164.871 78.9887 165.652 78.2075 166.192 77.2662C166.736 76.3338 167.023 75.2737 167.023 74.1941C167.023 73.1146 166.736 72.0544 166.192 71.122L161.973 63.7194ZM164.045 76.0571C163.722 76.6218 163.255 77.0907 162.691 77.4158C162.128 77.7409 161.488 77.9107 160.838 77.9077H143.836L148.08 63.1026H156.618C157.272 63.0995 157.914 63.2719 158.478 63.6017C159.043 63.9316 159.508 64.4069 159.826 64.9779L164.07 72.3805C164.382 72.9394 164.544 73.5696 164.539 74.2097C164.535 74.8498 164.365 75.4778 164.045 76.0324V76.0571Z" fill="white"/>
<path d="M55.8441 105.026C54.624 105.026 53.4314 105.388 52.4169 106.066C51.4024 106.743 50.6118 107.707 50.1449 108.834C49.678 109.961 49.5558 111.202 49.7938 112.398C50.0319 113.595 50.6194 114.694 51.4821 115.557C52.3448 116.42 53.444 117.007 54.6406 117.245C55.8373 117.483 57.0776 117.361 58.2048 116.894C59.332 116.427 60.2955 115.636 60.9733 114.622C61.6512 113.608 62.0129 112.415 62.0129 111.195C62.0129 109.559 61.363 107.99 60.2061 106.833C59.0493 105.676 57.4802 105.026 55.8441 105.026ZM55.8441 114.896C55.1121 114.896 54.3965 114.679 53.7878 114.272C53.1791 113.866 52.7047 113.288 52.4246 112.611C52.1444 111.935 52.0711 111.191 52.2139 110.473C52.3568 109.755 52.7093 109.095 53.2269 108.578C53.7445 108.06 54.4041 107.707 55.122 107.565C55.84 107.422 56.5842 107.495 57.2605 107.775C57.9369 108.055 58.5149 108.53 58.9216 109.138C59.3283 109.747 59.5454 110.463 59.5454 111.195C59.5454 112.176 59.1555 113.118 58.4613 113.812C57.7672 114.506 56.8258 114.896 55.8441 114.896Z" fill="white"/>
<path d="M149.61 105.026C148.39 105.026 147.198 105.388 146.183 106.066C145.169 106.743 144.378 107.707 143.911 108.834C143.444 109.961 143.322 111.202 143.56 112.398C143.798 113.595 144.386 114.694 145.248 115.557C146.111 116.42 147.21 117.007 148.407 117.245C149.604 117.483 150.844 117.361 151.971 116.894C153.098 116.427 154.062 115.636 154.74 114.622C155.417 113.608 155.779 112.415 155.779 111.195C155.779 109.559 155.129 107.99 153.972 106.833C152.816 105.676 151.246 105.026 149.61 105.026ZM149.61 114.896C148.878 114.896 148.163 114.679 147.554 114.272C146.945 113.866 146.471 113.288 146.191 112.611C145.911 111.935 145.837 111.191 145.98 110.473C146.123 109.755 146.476 109.095 146.993 108.578C147.511 108.06 148.17 107.707 148.888 107.565C149.606 107.422 150.35 107.495 151.027 107.775C151.703 108.055 152.281 108.53 152.688 109.138C153.095 109.747 153.312 110.463 153.312 111.195C153.312 112.176 152.922 113.118 152.228 113.812C151.533 114.506 150.592 114.896 149.61 114.896Z" fill="white"/>
<path d="M32.4026 53.2078H86.6883C87.3427 53.2078 87.9703 52.9478 88.4331 52.485C88.8958 52.0223 89.1558 51.3947 89.1558 50.7402C89.1558 50.0858 88.8958 49.4582 88.4331 48.9954C87.9703 48.5327 87.3427 48.2727 86.6883 48.2727H32.4026C31.7482 48.2727 31.1205 48.5327 30.6578 48.9954C30.195 49.4582 29.9351 50.0858 29.9351 50.7402C29.9351 51.3947 30.195 52.0223 30.6578 52.485C31.1205 52.9478 31.7482 53.2078 32.4026 53.2078Z" fill="white"/>
<path d="M79.2857 75.4155C79.2857 74.7611 79.0257 74.1335 78.563 73.6707C78.1002 73.208 77.4726 72.948 76.8181 72.948H34.8701C34.2157 72.948 33.5881 73.208 33.1253 73.6707C32.6626 74.1335 32.4026 74.7611 32.4026 75.4155C32.4026 76.07 32.6626 76.6976 33.1253 77.1603C33.5881 77.6231 34.2157 77.8831 34.8701 77.8831H76.8181C77.4726 77.8831 78.1002 77.6231 78.563 77.1603C79.0257 76.6976 79.2857 76.07 79.2857 75.4155Z" fill="white"/>
<path d="M84.2207 63.0779C84.2207 62.4235 83.9608 61.7958 83.498 61.3331C83.0353 60.8703 82.4076 60.6104 81.7532 60.6104H37.3376C36.6832 60.6104 36.0556 60.8703 35.5928 61.3331C35.1301 61.7958 34.8701 62.4235 34.8701 63.0779C34.8701 63.7323 35.1301 64.3599 35.5928 64.8227C36.0556 65.2854 36.6832 65.5454 37.3376 65.5454H81.7532C82.4076 65.5454 83.0353 65.2854 83.498 64.8227C83.9608 64.3599 84.2207 63.7323 84.2207 63.0779Z" fill="white"/>
<path d="M29.9351 65.5454C31.2978 65.5454 32.4026 64.4407 32.4026 63.0779C32.4026 61.7151 31.2978 60.6104 29.9351 60.6104C28.5723 60.6104 27.4675 61.7151 27.4675 63.0779C27.4675 64.4407 28.5723 65.5454 29.9351 65.5454Z" fill="white"/>
<path d="M39.8052 85.2857C39.1507 85.2857 38.5231 85.5457 38.0604 86.0084C37.5976 86.4712 37.3376 87.0988 37.3376 87.7532C37.3376 88.4077 37.5976 89.0353 38.0604 89.498C38.5231 89.9608 39.1507 90.2208 39.8052 90.2208H71.8831C72.5375 90.2208 73.1651 89.9608 73.6279 89.498C74.0906 89.0353 74.3506 88.4077 74.3506 87.7532C74.3506 87.0988 74.0906 86.4712 73.6279 86.0084C73.1651 85.5457 72.5375 85.2857 71.8831 85.2857H39.8052Z" fill="white"/>
<path d="M32.4026 90.2208C33.7654 90.2208 34.8701 89.116 34.8701 87.7532C34.8701 86.3905 33.7654 85.2857 32.4026 85.2857C31.0398 85.2857 29.9351 86.3905 29.9351 87.7532C29.9351 89.116 31.0398 90.2208 32.4026 90.2208Z" fill="white"/>
<rect x="-6" y="-11.5454" width="8.90914" height="39.3036" rx="4.45457" transform="rotate(-30 -6 -11.5454)" fill="white"/>
<rect x="8.91064" y="-10.7999" width="8.90914" height="43.5577" rx="4.45457" transform="rotate(-30 8.91064 -10.7999)" fill="white"/>
<rect x="23.4536" y="-9.81744" width="8.90914" height="47.6618" rx="4.45457" transform="rotate(-30 23.4536 -9.81744)" fill="white"/>
</g>
<defs>
<linearGradient id="paint0_linear_509_23" x1="396" y1="-67" x2="197.5" y2="106.5" gradientUnits="userSpaceOnUse">
<stop stop-color="#9FC1FF"/>
<stop offset="1" stop-color="#4484FB"/>
</linearGradient>
<linearGradient id="paint1_linear_509_23" x1="94" y1="77" x2="-104.5" y2="250.5" gradientUnits="userSpaceOnUse">
<stop stop-color="#4784F4" stop-opacity="0.89"/>
<stop offset="1" stop-color="#B8D0FD"/>
</linearGradient>
<clipPath id="clip0_509_23">
<rect width="351" height="147" fill="white"/>
</clipPath>
</defs>
</svg>
